<?xml version="1.0" encoding="UTF-8"?>
<svg id="Layer_2" data-name="Layer 2" xmlns="http://www.w3.org/2000/svg" viewBox="0 0 25.25 25.21">
  <defs>
    <style>
      .cls-1 {
        fill: #96acb6;
      }

      .cls-1, .cls-2 {
        stroke-width: 0px;
      }

      .cls-2 {
        fill: #eceded;
      }
    </style>
  </defs>
  <g id="Layer_1-2" data-name="Layer 1">
    <g>
      <g>
        <path class="cls-2" d="M25.2,5.8c-.02-1.11-.28-2.09-.73-2.93H.76C.32,3.69.05,4.64.04,5.71-.02,10.29,0,14.87.03,19.45c0,1,.23,1.98.73,2.87h23.74c.43-.81.69-1.75.71-2.83.03-2.22.05-4.44.05-6.67v-.34c0-2.23-.02-4.45-.05-6.68Z"/>
        <path class="cls-1" d="M19.54.03c-2.31-.03-11.47-.03-13.74,0C3.48.06,1.7,1.14.76,2.88h23.71C23.55,1.13,21.81.06,19.54.03Z"/>
        <path class="cls-1" d="M.76,22.32c.03.05.05.11.08.16,1.14,1.87,2.87,2.69,5,2.72.88.01,12.7.01,13.58,0,2.35-.05,4.15-1.12,5.08-2.88H.76Z"/>
      </g>
      <g>
        <path class="cls-1" d="M22.09,6.61h-2.48v5.1c0,1.53-.61,3-1.69,4.08l-.4.4-.4-.4c-1.08-1.08-1.69-2.55-1.69-4.08v-5.1h-2.48v6.13c0,1.53.61,3,1.69,4.08l2.49,2.49h.77l2.49-2.49c1.08-1.08,1.69-2.55,1.69-4.08v-6.13Z"/>
        <path class="cls-1" d="M9.48,15.07h0c-.08.99-.91,1.76-1.92,1.76-1.06,0-1.93-.86-1.93-1.93v-3.9c0-1.06.86-1.93,1.93-1.93,1.01,0,1.84.78,1.92,1.77h0s2.14-.39,2.14-.39l.29-.05c-.2-1.48-1.14-2.72-2.43-3.35-.58-.28-1.23-.45-1.93-.45s-1.34.16-1.93.45c-1.46.71-2.47,2.21-2.47,3.95v3.9c0,1.74,1.01,3.23,2.47,3.95.58.28,1.23.45,1.93.45s1.34-.16,1.93-.45c1.29-.63,2.23-1.87,2.43-3.35l-.29-.05-2.14-.38Z"/>
      </g>
    </g>
  </g>
</svg>