<?xml version="1.0" encoding="UTF-8"?>
<svg id="Layer_2" data-name="Layer 2" xmlns="http://www.w3.org/2000/svg" viewBox="0 0 29.71 25.23">
  <defs>
    <style>
      .cls-1 {
        fill: #96acb6;
      }

      .cls-1, .cls-2 {
        stroke-width: 0px;
      }

      .cls-2 {
        fill: #eceded;
      }
    </style>
  </defs>
  <g id="Layer_1-2" data-name="Layer 1">
    <g>
      <rect class="cls-2" x="3.06" y="0" width="23.59" height="25.23"/>
      <path class="cls-1" d="M29.71,3.36c0-.14,0-.28,0-.42-.07-1.4-.93-2.58-2.15-2.86-.4-.09-.82-.08-1.24-.07-.17,0-.37.07-.5.19-3.53,3.15-7.06,6.31-10.58,9.49-.14.12-.25.18-.36.18h-.03c-.11,0-.22-.06-.36-.18C10.96,6.51,7.44,3.35,3.9.2,3.77.08,3.57,0,3.4,0c-.41,0-.84-.02-1.24.07C.95.35.08,1.53.02,2.94c0,.14-.01.28-.01.42C0,9.52.01,15.69,0,21.85c0,1.27.4,2.25,1.36,2.94.71.5,1.5.44,2.31.44V5.52c.14.11.23.17.31.25,3.51,3.07,7.03,6.13,10.54,9.21.13.11.23.17.34.15.11.01.21-.04.34-.15,3.51-3.08,7.02-6.14,10.54-9.21.08-.07.17-.14.31-.25v19.71c.81,0,1.6.07,2.31-.44.95-.68,1.36-1.67,1.36-2.94,0-6.16,0-12.33,0-18.49"/>
    </g>
  </g>
</svg>