<?xml version="1.0" encoding="UTF-8"?>
<svg id="Layer_2" data-name="Layer 2" xmlns="http://www.w3.org/2000/svg" viewBox="0 0 25.23 25.2">
  <defs>
    <style>
      .cls-1 {
        fill: #96acb6;
      }

      .cls-1, .cls-2 {
        stroke-width: 0px;
      }

      .cls-2 {
        fill: #eceded;
      }
    </style>
  </defs>
  <g id="Layer_1-2" data-name="Layer 1">
    <g>
      <rect class="cls-1" width="25.23" height="25.2" rx="2.71" ry="2.71"/>
      <path class="cls-2" d="M21.76,21.72c-.07,0-.12,0-.18,0-1.14,0-2.28,0-3.41,0-.19,0-.19.02-.19-.19,0-2.11,0-4.22,0-6.33,0-.38-.04-.76-.15-1.13-.1-.36-.25-.68-.52-.95-.27-.27-.6-.42-.98-.47-.33-.05-.66-.04-.98.04-.71.16-1.18.6-1.44,1.27-.11.29-.18.6-.2.91-.01.2-.02.4-.02.6,0,2.02,0,4.03,0,6.05v.16s-.02.03-.03.03c0,0,0,0-.01,0-.03,0-.06,0-.08,0-1.16,0-2.32,0-3.47,0-.01,0-.02,0-.04-.01,0-.03-.01-.06-.02-.09,0-.04,0-.07,0-.11,0-3.91,0-7.83,0-11.74,0-.05,0-.09,0-.14,0-.06.03-.09.09-.09.04,0,.07,0,.11,0,1.08,0,2.17,0,3.25,0q.2,0,.2.19c0,.41,0,.81,0,1.22,0,.04,0,.08,0,.15.03-.04.05-.05.06-.08.65-.92,1.52-1.51,2.62-1.75.42-.09.84-.12,1.27-.09.42.03.82.08,1.22.2,1.24.38,2.08,1.19,2.54,2.39.17.45.28.93.32,1.41.02.29.05.57.05.86,0,2.5,0,4.99,0,7.49,0,.06,0,.11,0,.19Z"/>
      <path class="cls-2" d="M7.67,15.62c0,1.96,0,3.93,0,5.89,0,.24,0,.21-.2.21-1.14,0-2.28,0-3.43,0q-.18,0-.18-.18c0-3.94,0-7.88,0-11.82,0-.02,0-.03,0-.05,0-.13.01-.14.14-.14,1.17,0,2.35,0,3.52,0,.13,0,.14.01.14.14,0,.04,0,.07,0,.11,0,1.95,0,3.89,0,5.84Z"/>
      <path class="cls-2" d="M5.75,3.46c1.23,0,2.25,1.02,2.24,2.27,0,1.18-.93,2.25-2.25,2.25-1.26,0-2.25-1.01-2.24-2.27,0-1.34,1.09-2.26,2.25-2.25Z"/>
    </g>
  </g>
</svg>