<?xml version="1.0" encoding="UTF-8"?>
<svg id="Layer_2" data-name="Layer 2" xmlns="http://www.w3.org/2000/svg" xmlns:xlink="http://www.w3.org/1999/xlink" viewBox="0 0 25.23 25.23">
  <defs>
    <style>
      .cls-1 {
        clip-path: url(#clippath);
      }

      .cls-2 {
        fill: none;
      }

      .cls-2, .cls-3, .cls-4 {
        stroke-width: 0px;
      }

      .cls-3 {
        fill: #96acb6;
      }

      .cls-4 {
        fill: #eceded;
      }
    </style>
    <clipPath id="clippath">
      <rect class="cls-2" width="25.23" height="25.23"/>
    </clipPath>
  </defs>
  <g id="Layer_1-2" data-name="Layer 1">
    <g class="cls-1">
      <path class="cls-4" d="M16.79,23.82c-.69,0-1.4,0-2.08,0-.68,0-1.39,0-2.09,0h-.05c-.67,0-1.34,0-2.02,0-.69,0-1.39,0-2.08,0-1,0-1.83,0-2.61-.02-1.77-.02-2.98-.67-3.82-2.04-.39-.65-.6-1.42-.6-2.31v-.12c-.03-4.45-.05-9.06,0-13.58.02-1.26.43-2.34,1.2-3.1.77-.77,1.87-1.18,3.17-1.2,2.24-.03,4.52-.05,6.79-.05s4.6.02,6.9.05c2.59.04,4.23,1.72,4.27,4.39.07,4.52.07,9.1,0,13.63-.02,1.29-.43,2.37-1.2,3.12-.77.76-1.88,1.17-3.2,1.19-.77.01-1.59.02-2.59.02"/>
      <path class="cls-3" d="M12.61,0C10.34,0,8.07.02,5.8.05,2.39.1.08,2.39.04,5.73-.02,10.31,0,14.88.03,19.46c0,1.06.24,2.1.81,3.03,1.14,1.87,2.87,2.68,5,2.71.88.01,1.75.02,2.63.02,1.37,0,2.74,0,4.1,0h.05c1.39,0,2.78.01,4.17.01.87,0,1.74,0,2.62-.02,3.44-.07,5.73-2.29,5.78-5.7.06-4.56.06-9.11,0-13.67-.05-3.43-2.3-5.73-5.65-5.77C17.22.02,14.91,0,12.61,0M12.61,2.82c2.27,0,4.58.02,6.88.05,1.83.03,2.85,1.09,2.88,3,.07,4.5.07,9.08,0,13.59-.01,1.15-.43,1.8-.78,2.14-.64.63-1.58.78-2.25.79-.76.01-1.57.02-2.56.02-.69,0-1.39,0-2.07,0-.69,0-1.4,0-2.1,0h-.05c-.68,0-1.36,0-2.02,0-.68,0-1.39,0-2.08,0-1,0-1.82,0-2.59-.01-1.6-.02-2.23-.7-2.64-1.37-.26-.42-.39-.96-.4-1.58v-.12c-.03-4.45-.05-9.05,0-13.56.02-1.82,1.11-2.88,2.99-2.9,2.23-.03,4.51-.05,6.77-.05"/>
      <path class="cls-3" d="M18.95,16.63c-.78-.49-1.56-.97-2.34-1.44-.55-.33-.84-.32-1.37.06-.14.1-.28.22-.43.31-.62.37-1.06.34-1.65-.08-1.25-.88-2.32-1.95-3.27-3.13-.79-.98-1.18-1.38-.05-2.67.33-.38.35-.83.08-1.26-.56-.86-1.13-1.72-1.72-2.57-.29-.41-.63-.45-1.05-.21-.28.16-.55.34-.83.49-.73.41-.96,1.06-.84,1.84.13.85.37,1.66.75,2.44,1.05,2.18,2.58,3.99,4.34,5.63,1.46,1.36,3.1,2.46,4.96,3.21.53.21,1.06.39,1.66.31.6.08,1.13-.04,1.54-.55.22-.28.42-.57.59-.88.39-.7.3-1.08-.37-1.5"/>
    </g>
  </g>
</svg>