<?xml version="1.0" encoding="UTF-8"?>
<svg xmlns="http://www.w3.org/2000/svg" width="319.93" height="87.33" version="1.1" viewBox="0 0 319.93 87.33">
  <defs>
    <style>
      .cls-1 {
        stroke-miterlimit: 10;
      }

      .cls-1, .cls-2, .cls-3, .cls-4, .cls-5 {
        fill: none;
      }

      .cls-1, .cls-2, .cls-4, .cls-5 {
        stroke: red;
        stroke-linecap: round;
      }

      .cls-1, .cls-4 {
        stroke-width: 3px;
      }

      .cls-6 {
        fill: #d5eefc;
      }

      .cls-6, .cls-3, .cls-7, .cls-8 {
        stroke-width: 0px;
      }

      .cls-2 {
        stroke-width: 2px;
      }

      .cls-2, .cls-4, .cls-5 {
        stroke-linejoin: round;
      }

      .cls-7 {
        fill: #ebebec;
      }

      .cls-8 {
        fill: #96acb5;
      }

      .cls-9 {
        display: none;
      }

      .cls-5 {
        stroke-width: .75px;
      }
    </style>
  </defs>
  <g id="backingLines">
    <path class="cls-6" d="M20.11,86.05c-.31-27.4-.31-58.14,0-85.54.31,27.4.31,58.14,0,85.54h0Z"/>
    <path class="cls-6" d="M15.95,11.08c.33,20.77.33,43.63,0,64.4-.33-20.77-.33-43.62,0-64.4h0Z"/>
    <path class="cls-6" d="M298.94,81.73c-89.89.29-197.01.29-286.89,0,89.89-.29,197.01-.29,286.89,0h0Z"/>
    <path class="cls-6" d="M12.04,83.88c89.89-.29,197.01-.29,286.89,0-89.89.29-197.01.29-286.89,0h0Z"/>
    <path class="cls-6" d="M313.35,53.13c-97.42.29-213.52.29-310.94,0,97.42-.29,213.52-.29,310.94,0h0Z"/>
    <path class="cls-6" d="M0,47.31c100.24-.29,219.69-.29,319.93,0-100.24.29-219.69.29-319.93,0h0Z"/>
    <path class="cls-6" d="M309.41,3.45c-94.73.29-207.62.29-302.35,0,94.73-.29,207.62-.29,302.35,0h0Z"/>
  </g>
  <g id="backingMask" class="cls-9">
    <line class="cls-5" x1="20.11" y1="86.05" x2="20.11" y2=".51"/>
    <line class="cls-5" x1="15.95" y1="11.08" x2="15.95" y2="75.48"/>
    <line class="cls-5" x1="298.94" y1="81.73" x2="12.04" y2="81.73"/>
    <line class="cls-5" x1="12.04" y1="83.88" x2="298.94" y2="83.88"/>
    <line class="cls-5" x1="313.35" y1="53.13" x2="2.41" y2="53.13"/>
    <line class="cls-5" y1="47.31" x2="319.93" y2="47.31"/>
    <line class="cls-5" x1="309.41" y1="3.45" x2="7.06" y2="3.45"/>
  </g>
  <g id="letterform">
    <g>
      <path class="cls-7" d="M224.69,55.62c-.51,6.09-5.6,10.89-11.83,10.89-6.56,0-11.88-5.32-11.88-11.88v-24.06c0-6.56,5.32-11.88,11.88-11.88,6.23,0,11.32,4.79,11.83,10.89l15.02-2.7c-1.25-9.11-7.01-16.77-14.97-20.67-3.59-1.76-7.61-2.77-11.88-2.77s-8.29,1.01-11.88,2.77c-9.02,4.41-15.24,13.64-15.24,24.36v24.06c0,10.71,6.23,19.95,15.24,24.36,3.59,1.76,7.61,2.77,11.88,2.77s8.29-1.01,11.88-2.77c7.96-3.89,13.73-11.55,14.97-20.67l-15.02-2.7Z"/>
      <rect class="cls-7" x="144.79" y="66.29" width="15.27" height="15.27"/>
      <path class="cls-7" d="M47.1,3.64c-14.91,0-26.99,12.08-26.99,26.99v23.94c0,14.9,12.08,26.99,26.99,26.99s26.99-12.08,26.99-26.99v-23.94c0-14.9-12.08-26.99-26.99-26.99ZM35.3,30.63c0-6.51,5.28-11.8,11.8-11.8s11.8,5.28,11.8,11.8c0,.08,0,.3,0,.63l-23.59,7.44v-8.06ZM47.1,66.39c-6.37,0-11.55-5.04-11.8-11.35v-.42l23.61-7.44c0,4.12,0,7.39,0,7.39,0,6.53-5.29,11.82-11.82,11.82Z"/>
      <path class="cls-7" d="M89.37,3.64v15.19h20.62l-14.87,28.56h16.46c.21.03.42.05.63.1,4.36.88,7.63,4.73,7.63,9.34,0,5.27-4.27,9.53-9.53,9.53h-6.6c-2.93,0-5.55-1.33-7.3-3.41l-13.21,7.62c2.68,4,6.48,7.18,10.97,9.06,2.93,1.23,6.15,1.91,9.53,1.91h6.6c3.38,0,6.6-.68,9.53-1.91,5-2.09,9.15-5.79,11.84-10.43,2.12-3.64,3.35-7.87,3.35-12.38,0-3.38-.69-6.6-1.93-9.53,0,0,0,0,0-.01-.41-.98-.89-1.93-1.42-2.84-.8-1.38-1.74-2.66-2.78-3.86-2.46-2.83-5.54-5.1-9.06-6.57-.17-.07-.35-.12-.52-.19l7.81-14.99,7.91-15.19h0s-17.13,0-17.13,0h-28.54Z"/>
      <path class="cls-7" d="M272.7,81.66c14.94,0,27.06-12.11,27.06-27.06v-24c0-14.94-12.11-27.06-27.06-27.06s-27.06,12.11-27.06,27.06v24c0,14.94,12.11,27.06,27.06,27.06ZM260.87,30.6c0-6.53,5.29-11.83,11.83-11.83s11.83,5.29,11.83,11.83c0,.98.02,24,.02,24,0,6.54-5.31,11.85-11.85,11.85s-11.58-5.06-11.83-11.38v-24.47Z"/>
    </g>
  </g>
  <g id="line">
    <line class="cls-3" x1="-2049.32" y1="-26.88" x2="-2116.6" y2="-26.88"/>
    <line class="cls-3" x1="-2116.6" y1="-25.32" x2="-2049.32" y2="-25.32"/>
    <line class="cls-3" x1="-2049.32" y1="-47.58" x2="-2118.91" y2="-47.58"/>
    <line class="cls-3" x1="-2118.91" y1="-51.79" x2="-2049.32" y2="-51.79"/>
    <line class="cls-3" x1="-2048.45" y1="-83.53" x2="-2120.87" y2="-83.53"/>
    <g>
      <path class="cls-8" d="M160.06,79.68c-.15-5.2-.16-10.4,0-15.6.16,5.2.15,10.4,0,15.6h0Z"/>
      <path class="cls-8" d="M146.42,66.29c5.22-.15,10.44-.16,15.66,0-5.22.16-10.44.15-15.66,0h0Z"/>
    </g>
    <g>
      <g>
        <path class="cls-8" d="M261.94,53.16c.93.69,1.74,1.5,2.43,2.43-.93-.69-1.74-1.5-2.43-2.43h0Z"/>
        <path class="cls-8" d="M261.49,48.81c2.47,2.24,4.83,4.59,7.07,7.07-2.47-2.24-4.83-4.59-7.07-7.07h0Z"/>
        <path class="cls-8" d="M261.93,45.36c3.53,3.29,6.94,6.7,10.23,10.23-3.53-3.29-6.94-6.7-10.23-10.23h0Z"/>
        <path class="cls-8" d="M262.32,41.86c4.78,4.56,9.46,9.24,14.02,14.02-4.78-4.56-9.46-9.24-14.02-14.02h0Z"/>
        <path class="cls-8" d="M261.94,37.59c5.92,5.7,11.74,11.52,17.44,17.44-5.92-5.7-11.74-11.52-17.44-17.44h0Z"/>
        <path class="cls-8" d="M271.91,43.66c3.99,3.77,7.87,7.65,11.64,11.64-3.99-3.77-7.87-7.65-11.64-11.64h0Z"/>
        <path class="cls-8" d="M262.64,34.39c2.43,2.19,4.74,4.5,6.93,6.93-2.43-2.19-4.74-4.5-6.93-6.93h0Z"/>
        <path class="cls-8" d="M276.02,43.88c2.58,2.34,5.05,4.81,7.39,7.39-2.58-2.34-5.04-4.81-7.39-7.39h0Z"/>
        <path class="cls-8" d="M262.32,30.18c3.57,3.34,7.03,6.79,10.37,10.37-3.58-3.34-7.03-6.79-10.37-10.37h0Z"/>
        <path class="cls-8" d="M265.69,29.66c5.87,5.65,11.63,11.41,17.28,17.28-5.87-5.65-11.63-11.41-17.28-17.28h0Z"/>
        <path class="cls-8" d="M269.08,29.16c4.88,4.67,9.66,9.44,14.33,14.33-4.89-4.66-9.66-9.44-14.33-14.33h0Z"/>
        <path class="cls-8" d="M273.1,29.28c3.6,3.37,7.09,6.85,10.46,10.46-3.61-3.37-7.09-6.85-10.46-10.46h0Z"/>
        <path class="cls-8" d="M277.37,29.66c2.16,1.92,4.21,3.97,6.13,6.13-2.16-1.92-4.21-3.97-6.13-6.13h0Z"/>
        <path class="cls-8" d="M281.26,29.66c.69.45,1.26,1.02,1.71,1.71-.69-.45-1.26-1.02-1.71-1.71h0Z"/>
        <g>
          <path class="cls-8" d="M273.95,41.84c.02-.05.06-.08.1-.08.11,0,.32,0,.63,0,.02,0,.03,0,.04,0,0,0,.02,0,.03,0s.02,0,.03-.01c0,0,.01-.01.02-.02,0-.01,0-.02,0-.04,0-.04,0-.06-.02-.08-.01-.02-.03-.02-.05-.02-.02,0-.04,0-.07,0-.03,0-.21,0-.53,0,0,0-.03,0-.07,0,0,0,0,0,0,0,0,0,0,0,0,0,0-.02.02-.06.04-.1.02-.04.03-.07.04-.09.01-.02.01-.05,0-.07s-.02-.04-.05-.05c-.02,0-.04,0-.07,0-.02,0-.04.02-.05.04-.02.03-.03.06-.04.09-.01.03-.03.07-.05.11-.02.04-.03.07-.04.09,0,0,0,0,0,0-.25,0-.39.02-.42.02-.08,0-.14,0-.17,0-.03,0-.05.01-.06.03-.02.02-.02.04-.02.07,0,.02,0,.04.02.05s.02.02.04.02c.02,0,.03,0,.05,0,.03,0,.09,0,.18,0,.03,0,.04,0,.06,0-.03.01-.06.04-.09.08,0,0-.14.19-.42.56-.02.03-.04.05-.04.05,0,0,0,0,0,0s0,0,0,0c0-.01,0-.03.02-.06,0,0,.03-.09.1-.25,0-.02,0-.03,0-.05,0-.02-.02-.03-.03-.04-.03-.02-.06-.03-.09-.02-.04,0-.06.03-.07.06-.04.09-.06.16-.08.22-.08.1-.15.18-.22.23-.01,0-.02,0-.03,0,0,0-.01-.02-.01-.03.02-.12.06-.26.13-.43,0-.02.01-.03.02-.03s0-.02,0-.03c0-.02,0-.03,0-.04,0,0,0-.02-.02-.03s-.02-.02-.04-.03c-.03-.01-.05-.01-.07,0-.02.01-.03.03-.05.05-.05.08-.11.17-.17.29,0,.01-.02.03-.03.06s-.03.05-.04.06c-.01.02-.02.04-.03.06-.01.02-.02.04-.04.05,0,.01-.02.02-.03.02,0,0-.01,0-.01,0-.01-.03,0-.12.05-.25,0,0,.03-.08.09-.24.01-.03,0-.05,0-.07s-.03-.04-.06-.04c-.04,0-.07,0-.09.03-.06.07-.13.14-.22.2,0-.09-.04-.17-.1-.22-.06-.06-.14-.08-.24-.06-.08.02-.14.06-.2.13-.05.07-.08.14-.07.22,0,.02,0,.03,0,.04,0,.01-.01.01-.03.03-.03.04-.05.06-.06.07-.01.01-.03.03-.06.07-.03.04-.06.06-.07.08-.02.01-.04.04-.07.06-.03.03-.06.05-.08.06-.02.01-.05.02-.08.04-.03.01-.06.02-.08.02-.04,0-.08,0-.11-.03s-.05-.05-.06-.09c-.01-.04-.02-.08-.02-.12,0-.04,0-.08,0-.12.04-.33.19-.62.44-.87.09-.09.19-.15.28-.17.03,0,.05,0,.08,0s.05,0,.07.03c.02.02.03.04.03.07,0,.06,0,.12-.04.18-.03.06-.07.12-.11.17-.03.03-.06.05-.1.06-.01-.03-.02-.04-.02-.04-.01-.02-.03-.03-.05-.04-.02,0-.04,0-.06,0s-.03.02-.05.04-.02.04,0,.06c.01.06.04.11.09.13s.1.03.15.02c.05-.01.1-.04.14-.07.08-.07.14-.15.18-.25.05-.1.06-.2.05-.29,0-.06-.02-.1-.06-.14s-.07-.06-.11-.08c-.04-.01-.09-.02-.14-.02s-.1.01-.15.03c-.09.03-.17.08-.25.15-.08.07-.15.14-.21.22-.06.08-.11.16-.16.25-.12.22-.18.44-.19.64s.05.35.18.43c.07.04.13.05.2.05.07,0,.14-.02.2-.06.08-.04.17-.11.26-.2.02-.02.03-.04.05-.06,0,.03,0,.07,0,.1.03.05.06.08.11.09.05.01.1.01.15,0,.05-.02.09-.04.13-.08.08-.08.14-.16.17-.25.04-.03.09-.06.13-.09-.01.05-.02.09-.03.13-.01.06,0,.12.02.18.02.05.06.09.12.1.04,0,.07,0,.11-.01.03-.02.06-.04.09-.08.02-.02.03-.05.05-.08,0,0,0,0,0,0,0,.03,0,.04,0,.05,0,.05.02.1.06.12.04.03.09.03.15.02.05-.01.11-.05.17-.11.01.06.04.1.08.12.04.02.09,0,.14-.03.03-.02.06-.05.09-.08l.16-.21s.02-.02.03-.04c0,.04-.01.05-.01.05-.02.06-.03.12-.03.18,0,.08,0,.14.03.18.02.03.04.04.07.05.03,0,.06,0,.08-.03,0,0,0-.01,0-.02-.02-.13-.01-.27.02-.41.04-.14.1-.29.18-.45.02-.04.03-.06.03-.06.01-.04,0-.07-.02-.09-.02-.02-.04-.01-.06-.01.04,0,.08,0,.11,0,.04,0,.06,0,.07.02.01.02.01.04,0,.08,0,.01-.03.07-.06.16-.04.09-.06.16-.07.19s-.03.08-.05.16c-.02.07-.04.14-.05.19,0,.06-.02.11-.02.17-.01.13.01.23.07.29.02.02.04.02.06.02.02,0,.04-.01.06-.02.02-.01.03-.03.03-.05s0-.04-.02-.06c-.02-.03-.03-.06-.03-.09,0-.13.04-.28.09-.43.05-.16.12-.34.2-.54ZM271.53,42.56s-.03,0-.04,0c0,0-.01-.02-.01-.03,0-.02,0-.04,0-.06.02.01.05.02.07.02,0,0,.01,0,.02,0,0,0,.02,0,.03,0-.02.02-.05.04-.08.06ZM271.75,42.23s0,.03-.01.05c-.07.03-.12.05-.16.04-.01,0-.02-.01-.02-.03,0-.01,0-.03.02-.03.02-.02.04-.04.05-.05.06-.05.06-.1,0-.14h-.01s.05-.03.05-.03c.03,0,.06,0,.07.03.02.02.02.05.02.08,0,.03,0,.06,0,.08Z"/>
          <path class="cls-8" d="M275.3,42.46s-.03-.02-.03-.03c0,0-.01-.01-.02-.03,0-.01-.01-.03-.02-.04,0,0,0-.02,0-.03s0-.02,0-.03c0,0,0-.02,0-.03,0-.01,0-.02,0-.03,0,0,0-.02,0-.03,0-.01,0-.02,0-.03s0-.01,0-.03c0-.01,0-.02,0-.03,0-.03,0-.06-.01-.09s-.04-.04-.08-.05c-.04,0-.08,0-.12.03-.04.02-.07.05-.09.09-.1.16-.17.28-.2.36,0,0,0,0,0,0,0,0,0,0,0,0,0,0,0-.01,0-.02.05-.12.08-.19.08-.21.01-.03.02-.05.01-.08,0-.02-.02-.04-.04-.06-.04-.02-.08,0-.12.04-.01.02-.03.04-.05.07-.02.03-.04.05-.05.07-.11.14-.2.25-.28.31-.05.04-.09.06-.12.07-.09.02-.13-.02-.12-.11h0s.01,0,.02-.01.02,0,.02,0c.08-.02.15-.05.22-.1.07-.05.11-.11.13-.18.01-.04.01-.08,0-.11-.01-.04-.03-.06-.06-.09s-.06-.04-.09-.05c-.04,0-.07,0-.11,0-.08.03-.15.08-.2.16-.06.08-.1.17-.12.25-.01.04-.02.08-.01.13,0,.05,0,.09.02.13.01.04.04.07.07.1.03.03.07.05.12.06.14.02.3-.05.46-.23,0,.12.02.2.1.21.04,0,.07,0,.11-.02.04-.02.07-.05.09-.08.02-.03.04-.07.06-.11.02-.04.04-.08.07-.14.03-.06.04-.09.05-.11,0,0,0,0,0-.01,0,0,0-.01,0-.02,0,0,0-.01,0-.02.01.11.05.18.1.22.02.02.06.03.09.03s.06-.02.08-.05c.02-.04.01-.07-.01-.09ZM274.26,42.21s0,0,0,0c.02-.01.03-.01.03,0s0,.02,0,.04c-.03.05-.08.09-.15.11.03-.07.07-.11.11-.14Z"/>
        </g>
      </g>
      <path class="cls-8" d="M260.86,59.21c-.15-12.22-.16-24.44,0-36.66.16,12.22.15,24.44,0,36.66h0Z"/>
      <path class="cls-8" d="M284.54,53.31c-.15-7-.16-14,0-21.01.16,7,.15,14,0,21.01h0Z"/>
      <path class="cls-8" d="M260.86,30.7c-.18-9.33,10.46-15.16,18.25-10.03,2.38,1.54,4.16,3.96,4.92,6.67-.85-2.68-2.66-5.02-5.01-6.53-7.75-4.93-18.06.71-18.16,9.89h0Z"/>
      <path class="cls-8" d="M278.64,64.95c-4.14,2.69-10.02,2.17-13.62-1.22,3.82,3.07,9.32,3.56,13.62,1.22h0Z"/>
      <g>
        <path class="cls-8" d="M278.64,63.95l-.87.5s-.04,0-.05-.01c0-.02,0-.04.01-.05,0,0,0,0,0,0l.9-.44Z"/>
        <path class="cls-8" d="M276.86,64.86l-.95.33s-.09,0-.11-.05c-.02-.04,0-.09.05-.11,0,0,0,0,0,0h0s.95-.29.95-.29h0s.07,0,.08.04c.01.03,0,.07-.04.08Z"/>
        <path class="cls-8" d="M274.94,65.44l-1,.15c-.06,0-.12-.03-.13-.09s.03-.12.09-.13c0,0,0,0,0,0h0s.98-.14.98-.14h0c.06,0,.11.03.12.09,0,.06-.03.11-.09.12Z"/>
        <path class="cls-8" d="M272.93,65.66c-.34.01-.67-.01-1.01-.02-.07,0-.12-.06-.12-.12,0-.07.06-.12.12-.12,0,0,0,0,0,0h.01c.33,0,.66.04.99.03.06,0,.12.05.12.11,0,.06-.05.12-.11.12Z"/>
        <path class="cls-8" d="M270.92,65.54l-.99-.2c-.06-.01-.1-.07-.09-.13.01-.06.07-.1.13-.09h0s.97.18.97.18h.01c.07.01.11.08.1.14s-.08.11-.14.1c0,0,0,0,0,0Z"/>
        <path class="cls-8" d="M268.96,65.06l-.94-.37s-.07-.07-.05-.12c.02-.05.07-.07.12-.05h0s.93.34.93.34h0c.06.02.09.09.06.14-.02.06-.08.09-.14.06,0,0,0,0,0,0Z"/>
        <path class="cls-8" d="M267.12,64.24l-.86-.53s-.03-.05-.02-.07c.01-.02.05-.03.07-.02l.87.48h0s.05.07.03.11-.07.05-.1.03c0,0,0,0,0,0Z"/>
        <path class="cls-8" d="M265.46,63.11l-.44-.38.46.35s.01.02,0,.03c0,0-.02.01-.03,0,0,0,0,0,0,0Z"/>
      </g>
      <path class="cls-8" d="M245.63,34.39c.17,4.81.17,9.62,0,14.42-.17-4.81-.17-9.62,0-14.42h0Z"/>
      <path class="cls-8" d="M299.74,39.43c.17,2.71.17,5.43,0,8.14-.17-2.71-.17-5.43,0-8.14h0Z"/>
      <path class="cls-8" d="M247,63.23c6.75,19.79,32.62,24.84,46.21,8.94,4.12-4.82,6.46-11.11,6.53-17.47.02,6.38-2.26,12.72-6.4,17.58-13.52,16.11-39.87,10.93-46.34-9.05h0Z"/>
      <path class="cls-8" d="M299.6,27.84c-1.23-11.24-9.93-21.02-20.95-23.54,11.14,2.2,20.06,12.23,20.95,23.54h0Z"/>
      <path class="cls-8" d="M262.64,5.47c-8,3.34-14.17,10.49-16.28,18.91,1.77-8.49,8.15-15.89,16.28-18.91h0Z"/>
      <g>
        <g>
          <path class="cls-8" d="M282.95,10.98s0,0-.01,0c0,0,0,0,0,0,0,0,0,0,0,0Z"/>
          <path class="cls-8" d="M286.08,9.59c2.66-2.21,6.1-3.24,9.46-3.79-4.16.14-8.36,2.29-11.36,5.28l-1.14-.1h-.06s-.02,0-.04,0c0,0,0,0,0,0,0,0,0,0,0,0,0,0,0,0,0,0,0,0,0,0,0,0,0,0,0,0,0,0,0,0,0,0,0,0-.01,0-.02,0-.03,0-.04.28.03.09,0,.15.05,0,.06.02.08.02.23.45,0,1.07-.03,1.55.15-.43.27-.93.23-1.41,0-.04-.01-.08-.04-.13l.84.11c-.19.19-.38.37-.56.57-.06.14-.27.46,0,.57.14.03.15-.02.22-.03.5-.27.89-.65,1.31-1.03.08-.06.03-.2-.07-.21l-.46-.04c.51-.54,1.11-1.07,1.63-1.51ZM284.62,11.34c-.31.27-.65.55-.95.73.16-.26.37-.51.6-.77l.35.05Z"/>
        </g>
        <g>
          <path class="cls-8" d="M297.44,5.17c-.09-.01-.18,0-.28.02s-.18.07-.27.12c-.08.06-.16.12-.22.19s-.12.15-.17.23c-.04.07-.06.14-.07.22,0,.08,0,.15.04.23.01.03,0,.06,0,.1-.08.15-.13.29-.17.42-.01.06,0,.11.05.15.03.02.06.03.09.02.03,0,.06-.01.09-.04.15-.12.22-.28.2-.46,0,0,0-.02,0-.05.18-.07.33-.1.48-.08.06,0,.11.03.15.07.04.04.05.08.03.14-.04.1-.11.2-.22.27-.21.15-.43.22-.65.22-.11,0-.19-.04-.24-.1-.01-.02-.03-.03-.05-.03-.02,0-.04,0-.06,0-.03.02-.04.04-.04.07,0,.03,0,.05.03.08.03.04.08.08.14.11.06.03.12.04.18.04.06,0,.12,0,.18,0,.09-.01.18-.03.27-.06.09-.03.18-.07.26-.11s.16-.1.23-.17c.07-.07.12-.14.16-.22.04-.1.05-.2,0-.28s-.11-.15-.23-.18c-.02,0-.08-.02-.17-.04.03-.02.05-.03.05-.04.05-.04.1-.07.15-.11.04-.04.09-.08.13-.12.04-.05.08-.1.11-.15.03-.05.05-.11.06-.16.01-.08,0-.15-.05-.21-.04-.06-.1-.09-.18-.11ZM297.46,5.53s-.04.07-.07.11c-.03.03-.05.06-.08.09s-.06.05-.09.08c-.04.03-.09.07-.14.1-.05.04-.1.06-.12.08-.03.02-.08.04-.15.08,0,0,0,0,0,0s0,0,0,0c.02-.03.03-.04.03-.04.11-.13.18-.23.22-.28.04-.04.04-.08,0-.12-.01-.02-.04-.03-.06-.03-.03,0-.05,0-.07.02-.01.01-.02.02-.04.04-.04.05-.12.16-.24.31,0,0-.01.02-.03.05,0-.06,0-.13.06-.21.07-.12.17-.22.29-.31.15-.11.28-.16.4-.15.1,0,.14.03.13.09,0,.04-.02.08-.03.11Z"/>
          <path class="cls-8" d="M300.22,5.43s-.04-.08-.08-.1c-.04-.02-.08-.01-.13.01-.04.02-.08.05-.12.09s-.08.09-.1.13c-.17.27-.28.53-.34.8-.01,0-.02,0-.04-.01-.03,0-.05-.01-.07-.02-.02,0-.03-.02-.04-.03,0,0,0-.02,0-.05.02-.07.02-.11.02-.11,0-.04,0-.07-.03-.08-.02-.02-.05-.02-.09,0-.04.01-.07.05-.09.09-.02.05-.03.09-.02.14,0,.03,0,.05,0,.07-.03.11-.07.2-.12.27-.02.03-.03.05-.05.07,0,0,0-.02,0-.06,0-.08.01-.19.03-.34,0-.02,0-.04,0-.06,0-.02-.02-.03-.04-.04-.05-.02-.1,0-.14.07-.02.03-.06.09-.11.17-.05.08-.09.13-.12.17,0,0,0,0,0,0,0,0,0,0,0,0,.02-.14.06-.29.13-.44.03-.07.02-.12-.02-.14-.05-.02-.09,0-.13.05-.05.06-.11.12-.19.18,0-.09-.04-.17-.1-.22-.06-.06-.14-.07-.24-.05-.08.02-.14.06-.2.13-.05.07-.08.14-.07.22,0,.06,0,.11-.02.15,0,0,0,0,0,.02-.03.1-.02.19.02.26.03.05.07.08.11.09.05.01.1.01.15,0,.05-.02.09-.04.13-.08.08-.08.13-.16.17-.25.04-.02.07-.05.11-.08,0,.02,0,.03,0,.05-.03.14-.03.24,0,.31.01.04.04.07.07.08.04.01.07.01.11,0,.02,0,.04-.02.05-.04.02-.02.03-.03.04-.04,0-.01.02-.03.04-.06s.03-.04.04-.05c0,0,0,0,0,0s0,0,0,0c0,0,0,0,0,0,0,0,0,0,0,0,0,0,0,0,0,0,0,.05.02.1.03.15.02.06.05.1.1.11.05.01.1,0,.15-.04.02-.01.04-.03.05-.05.02-.02.03-.04.05-.06.01-.02.03-.04.04-.06,0-.02.02-.04.04-.07.01-.03.03-.05.03-.07,0,0,0-.02.02-.04.03.01.05.02.05.02.04.02.08.02.12.02-.01.08-.05.17-.05.25,0,.06.03.11.08.15.06.03.11.03.17,0,.07-.04.14-.09.21-.16s.13-.14.18-.21c.04-.05.03-.1-.02-.13,0,0-.02,0-.03-.01,0,0-.01,0-.02,0,0,0-.01,0-.02,0,0,0-.01,0-.02,0,0,0-.01,0-.02.01,0,0-.01.01-.01.02,0,0,0,0-.02.02,0,0-.01.01-.01.02-.09.11-.17.19-.24.25-.01,0-.02,0-.03,0,0,0,0-.02,0-.03.02-.16.05-.31.11-.46,0-.03.02-.04.04-.05.04-.02.08-.05.13-.08s.08-.07.13-.11c.04-.04.08-.08.12-.13.03-.04.07-.09.09-.14.03-.05.04-.1.05-.15,0-.05,0-.1,0-.16ZM297.9,6.65s-.03,0-.04,0c0,0-.01-.02-.01-.03,0-.02,0-.03,0-.06,0,0,.01,0,.04.02.02,0,.05.01.08,0-.02.02-.05.04-.08.06ZM298.11,6.33s0,.03-.01.05c-.07.03-.12.05-.16.04,0,0-.02,0-.02-.02,0-.02,0-.03.01-.04.02-.02.04-.04.05-.05.06-.05.06-.1,0-.14h-.01s.05-.03.05-.03c.03,0,.06,0,.07.03s.02.05.02.08c0,.03,0,.06,0,.08ZM299.94,5.76c-.06.1-.11.16-.15.17.02-.06.06-.13.11-.22.05-.09.1-.15.14-.17,0,.04-.04.12-.1.22Z"/>
        </g>
      </g>
    </g>
    <g>
      <path class="cls-8" d="M113.96,44.13c5.37-10.65,10.88-21.24,16.53-31.75-5.37,10.65-10.88,21.24-16.53,31.75h0Z"/>
      <path class="cls-8" d="M112.2,14.77c-5.6,10.92-11.26,21.81-16.98,32.67,0,0-.09-.15-.09-.15,7.59.03,15.19.02,22.78.11-7.59.08-15.19.08-22.78.11-.08,0-.13-.09-.09-.15,5.66-10.89,11.39-21.74,17.17-32.57h0Z"/>
      <path class="cls-8" d="M95.63,18.83c6.98-.15,13.96-.16,20.94,0-6.98.16-13.96.15-20.94,0h0Z"/>
      <path class="cls-8" d="M132.58,8.37l2.4-4.76.06.1c-9.01.06-18.02.08-27.03-.07,9.01-.15,18.02-.13,27.03-.07.05,0,.09.06.06.1,0,0-2.52,4.69-2.52,4.69h0Z"/>
      <path class="cls-8" d="M97.36,3.64c-3.58.17-7.17.17-10.75,0,3.58-.17,7.17-.17,10.75,0h0Z"/>
      <path class="cls-8" d="M89.37,12.63c-.17-3.44-.17-6.87,0-10.31.17,3.44.17,6.87,0,10.31h0Z"/>
      <path class="cls-8" d="M113.96,66.36c-4.62.17-9.23.17-13.85,0,4.62-.17,9.23-.17,13.85,0h0Z"/>
      <path class="cls-8" d="M118.61,81.56c-6.74.15-13.48.16-20.21,0,6.74-.16,13.48-.15,20.21,0h0Z"/>
      <path class="cls-8" d="M85.78,69.09l10.56-6.24c.06-.04.14-.02.17.04.04.06.01.14-.05.17,0,0-10.69,6.03-10.69,6.03h0Z"/>
      <g>
        <path class="cls-8" d="M96.41,63.08h-1c-.06-.01-.11-.06-.11-.13,0-.06.05-.11.11-.11h1c.07-.01.13.04.13.11s-.05.13-.12.13c0,0,0,0,0,0Z"/>
        <path class="cls-8" d="M94.41,63.06h-1c-.05-.01-.09-.05-.09-.1,0-.05.04-.09.09-.09h1c.06-.01.1.03.1.09,0,.06-.04.1-.1.1,0,0,0,0,0,0Z"/>
        <path class="cls-8" d="M92.41,63.04h-1s-.07-.04-.07-.08c0-.04.03-.07.07-.07h1s.08.02.08.07c0,.04-.04.08-.08.08,0,0,0,0,0,0Z"/>
        <path class="cls-8" d="M90.41,63.01h-1s-.05-.03-.05-.06c0-.03.02-.05.05-.05h1s.06.01.06.05-.03.06-.06.06c0,0,0,0,0,0Z"/>
        <path class="cls-8" d="M88.41,62.99h-1s-.03-.02-.03-.04c0-.01.01-.02.03-.03h1s.04,0,.04.02c0,.02-.02.04-.04.04h0Z"/>
        <path class="cls-8" d="M86.41,62.97h-1s0-.01,0-.01c0,0,0,0,0,0h1s.01,0,.01,0c0,0,0,.01-.01.01h0Z"/>
      </g>
      <g>
        <path class="cls-8" d="M104.3,64.18l.81.59s0,0,0,.02c0,0,0,0-.02,0,0,0,0,0,0,0l-.8-.61Z"/>
        <path class="cls-8" d="M105.97,65.27l.91.41s.03.02.02.04-.02.03-.04.02c0,0,0,0,0,0l-.91-.43s-.02-.02-.01-.03c0-.01.02-.01.03,0Z"/>
        <path class="cls-8" d="M107.83,65.98l.97.2h0s.05.04.04.07c0,.03-.04.05-.07.04,0,0,0,0,0,0l-.98-.23s-.04-.03-.03-.05c0-.02.03-.04.06-.03Z"/>
        <path class="cls-8" d="M109.8,66.28c.33.01.66.02.99,0,.04,0,.07.03.07.06s-.03.07-.06.07h0c-.34.01-.67,0-1.01-.01-.04,0-.06-.03-.06-.07,0-.03.03-.06.07-.06Z"/>
        <path class="cls-8" d="M111.78,66.19l.97-.2h0s.08.02.09.06c0,.04-.02.08-.06.09h0s-.99.2-.99.2c-.04,0-.08-.02-.08-.06,0-.04.02-.08.06-.08h0Z"/>
        <path class="cls-8" d="M113.69,65.68l.9-.4h0s.09,0,.11.04c.02.04,0,.09-.04.11h0s-.92.4-.92.4c-.04.02-.09,0-.1-.04-.02-.04,0-.09.04-.1h0Z"/>
        <path class="cls-8" d="M115.45,64.78l.8-.58h0s.1-.03.13.01c.03.04.02.1-.02.13h0s-.82.59-.82.59c-.04.03-.09.02-.12-.02-.03-.04-.02-.09.02-.12h0Z"/>
        <path class="cls-8" d="M116.99,63.53l.66-.74h0s.1-.05.14-.02c.04.04.04.1,0,.14h0s-.68.75-.68.75c-.03.04-.09.04-.13,0-.04-.03-.04-.09,0-.13h0Z"/>
        <path class="cls-8" d="M118.23,62l.49-.86h0c.03-.06.09-.08.14-.05.05.03.07.09.04.14h0s-.51.87-.51.87c-.03.05-.09.06-.14.04-.05-.03-.06-.09-.04-.14h0Z"/>
        <path class="cls-8" d="M119.12,60.24l.3-.94h0c.02-.07.08-.1.14-.08.06.02.09.08.07.14h0s-.32.96-.32.96c-.02.06-.08.09-.14.07-.06-.02-.09-.08-.07-.14h0Z"/>
        <path class="cls-8" d="M119.62,58.33l.1-.98h0c0-.08.07-.13.13-.12.07,0,.11.07.11.13h0s-.11,1.01-.11,1.01c0,.06-.06.11-.13.1-.06,0-.11-.06-.1-.13h0Z"/>
        <path class="cls-8" d="M119.71,56.36l-.1-.98h0c0-.08.04-.14.11-.15.07,0,.13.04.13.11l.11,1.01c0,.07-.04.13-.11.14-.07,0-.13-.04-.14-.11h0s0-.01,0-.01Z"/>
        <path class="cls-8" d="M119.4,54.41l-.31-.94h0c-.02-.07.01-.14.07-.16.06-.02.12.01.14.07l.32.96c.02.06-.01.13-.07.15-.06.02-.13-.01-.15-.07h0s0-.01,0-.01Z"/>
        <path class="cls-8" d="M118.69,52.57l-.5-.85h0c-.03-.06-.01-.13.04-.16.05-.03.12-.01.14.04l.52.87c.03.05.01.12-.04.15-.05.03-.12.01-.15-.04h0s0-.01,0-.01Z"/>
        <path class="cls-8" d="M117.61,50.92l-.66-.73h0s-.03-.11,0-.15c.04-.04.1-.03.14,0l.68.74s.04.11,0,.14c-.04.04-.11.04-.14,0h0s0,0,0,0Z"/>
        <path class="cls-8" d="M116.21,49.53l-.8-.58h0s-.05-.09-.02-.13c.03-.04.09-.05.13-.02l.82.58s.05.09.02.13c-.03.04-.09.05-.13.02h0s0,0,0,0Z"/>
        <path class="cls-8" d="M114.55,48.46l-.91-.4h0s-.06-.07-.04-.11c.02-.04.07-.06.11-.04l.93.4s.06.07.05.11c-.02.04-.07.06-.11.05h0s0,0,0,0Z"/>
        <path class="cls-8" d="M112.69,47.76l-.97-.2h0s-.07-.05-.06-.09c0-.04.05-.07.09-.06l.99.19s.07.05.06.09c0,.04-.05.07-.09.06h0s0,0,0,0Z"/>
        <path class="cls-8" d="M110.74,47.47c-.33-.01-.66,0-.99,0-.04,0-.07-.02-.07-.06,0-.04.03-.07.07-.07.34-.01.67-.03,1.01-.02.04,0,.07.03.07.07,0,.04-.03.07-.07.07h0Z"/>
        <path class="cls-8" d="M108.76,47.59l-.97.21h0s-.06-.01-.07-.04c0-.03.01-.06.04-.07l.98-.23s.07.01.08.05c0,.03-.01.07-.05.08,0,0,0,0,0,0h0Z"/>
        <path class="cls-8" d="M106.84,48.11l-.91.41s-.04,0-.05-.01c0-.02,0-.04.02-.05l.91-.43s.05,0,.06.02,0,.05-.02.06c0,0,0,0,0,0Z"/>
        <path class="cls-8" d="M105.07,49.03l-.8.59s-.01,0-.02,0c0,0,0-.01,0-.02l.79-.61s.03,0,.03,0c0,.01,0,.03,0,.03,0,0,0,0,0,0Z"/>
        <polygon class="cls-8" points="103.53 50.3 103.41 50.42 103.53 50.3 103.53 50.3"/>
      </g>
      <path class="cls-8" d="M132.04,68.8c-4.07,7.84-12.79,13-21.63,12.75,8.82-.1,17.26-5.08,21.63-12.75h0Z"/>
      <path class="cls-8" d="M110.4,32.12c13.4-.38,25.1,11.32,24.72,24.72.02-13.33-11.39-24.74-24.72-24.72h0Z"/>
      <g>
        <path class="cls-8" d="M98.6,48.26c-.3.24-.57.51-.84.78-.13-.15-.26-.29-.37-.43l1.67-.57-1.81.46s-.07.07-.04.11c.14.19.28.37.41.55-1.21,1.21-2.2,2.64-2.95,4.18.88-1.43,1.91-2.8,3.1-3.99.14.17.29.33.48.48.1.08.3.05.29-.14-.02-.22-.03-.36.01-.57,0-.27.27-.61.22-.84-.04-.05-.12-.06-.17-.02ZM97.91,49.22c.16-.15.32-.3.48-.45-.08.28-.11.56-.08.84-.12-.11-.26-.24-.4-.4Z"/>
        <path class="cls-8" d="M92.94,60.76c-.16-.01-.31-.03-.47-.05.1-1.47.27-2.93.86-4.29-.72,1.31-.95,2.78-1.08,4.26-.29-.03-.58-.06-.87-.05-.06.03-.08.1-.05.15.29.55.55,1.12.79,1.68.04.12.23.09.23-.04,0-.09.01-.19.02-.28.22-.43.44-.86.63-1.3,0-.04-.03-.08-.08-.08ZM92.24,60.89c-.03.35-.05.7-.07,1.04-.17-.36-.34-.72-.53-1.07.2.01.4.02.6.03ZM92.46,60.9c.12,0,.24.01.36.02-.15.37-.29.75-.43,1.13.02-.38.04-.76.07-1.14Z"/>
        <g>
          <path class="cls-8" d="M92.34,54.46c-.03.07-.04.11-.04.11-.06.19-.09.35-.1.49,0,.02,0,.03,0,.05,0,.02,0,.03,0,.05,0,.02.01.03.03.04.01,0,.03.01.05,0,.03,0,.05-.02.07-.04.02-.03.03-.05.03-.08,0-.3.12-.65.36-1.07.08-.14.15-.26.21-.37,0-.01.01-.03.02-.04,0-.02.01-.03.01-.05s0-.04,0-.05c0-.01-.02-.02-.04-.03,0,0-.01,0-.02,0-.01,0-.02,0-.03,0,0,0-.02,0-.03,0-.01,0-.02,0-.02.01,0,0-.01,0-.02.02,0,0-.02.01-.02.02,0,0-.01.01-.02.02,0,0-.02.02-.02.02,0,0-.01.01-.02.02,0,0-.01.01-.02.02-.07.07-.17.17-.31.32-.14.15-.25.26-.33.33-.02.02-.04.04-.06.04-.13.04-.26.12-.39.22-.14.11-.25.23-.31.36-.02.03-.03.06-.03.09,0,0,0,0,0,.01,0,.07.03.1.11.09.06,0,.11-.03.15-.06.06-.04.11-.09.15-.13,0,0,.14-.14.41-.41.02-.02.03-.03.04-.03.07-.02.14,0,.19.02ZM92.53,54.04s0,0,0,0,0,0,0,0c-.02.03-.04.08-.07.14s-.05.1-.06.11c0,0-.02,0-.05,0-.02,0-.04,0-.06-.01.13-.13.2-.21.23-.24Z"/>
          <path class="cls-8" d="M95.23,54.45c.03-.05.06-.08.11-.07.11.01.32.03.63.07.02,0,.03,0,.04,0,0,0,.02,0,.03,0s.02,0,.03,0c0,0,.01-.01.02-.02,0-.01.01-.02.01-.04,0-.04,0-.06-.01-.08-.01-.02-.03-.03-.05-.03-.02,0-.04,0-.07,0-.03,0-.21-.02-.52-.06,0,0-.03,0-.07,0,0,0,0,0,0,0,0,0,0,0,0,0,.01-.02.03-.06.05-.1.02-.04.04-.07.05-.09.01-.02.02-.05,0-.07,0-.02-.02-.04-.04-.05-.02-.01-.04-.01-.07,0-.02,0-.04.02-.06.04-.02.03-.04.05-.05.08s-.04.06-.06.1c-.02.04-.04.07-.05.09,0,0,0,0,0,0-.25-.01-.39-.02-.42-.02-.08,0-.14,0-.17,0-.03,0-.05,0-.06.03-.02.02-.02.04-.02.07,0,.02,0,.04.02.05.01.01.02.02.04.02.02,0,.03,0,.05,0,.03,0,.09,0,.18,0,.09,0,.16,0,.21,0,.04,0,.06.01.07.03,0,.02,0,.04,0,.08,0,.01-.03.07-.08.16-.04.09-.07.15-.08.18-.01.03-.03.08-.06.15,0,0,0,.01,0,.02,0-.01.01-.03,0-.04-.02-.01-.03-.02-.03-.03,0,0-.01-.01-.02-.03,0-.01-.01-.03-.01-.04,0,0,0-.02,0-.03,0-.01,0-.02,0-.03,0,0,0-.02,0-.03s0-.02,0-.03c0,0,0-.02,0-.03,0-.01,0-.02,0-.03s0-.01.01-.03,0-.02.01-.03c.01-.03,0-.06,0-.09-.02-.03-.04-.04-.07-.05-.04,0-.08,0-.12.02-.04.02-.07.05-.1.08-.11.15-.19.27-.23.35,0,0,0,0,0,0,0,0,0,0,0,0,0,0,0-.01,0-.02.06-.11.09-.18.1-.2.02-.03.02-.05.02-.08,0-.02-.02-.04-.04-.06-.04-.03-.08-.02-.13.03-.01.01-.03.04-.06.06-.02.03-.04.05-.06.06-.12.13-.22.22-.31.28-.05.04-.09.06-.13.06-.09.01-.13-.03-.11-.12h0s.01,0,.02,0c0,0,.02,0,.02,0,.08-.01.15-.04.23-.08s.12-.1.15-.16c.02-.04.02-.08.01-.11,0-.04-.02-.07-.05-.09-.02-.03-.05-.04-.09-.06-.04-.01-.07-.01-.11,0-.08.02-.15.07-.22.14-.02.02-.03.05-.05.08,0,0,0,0,0,0-.04,0-.08-.01-.14-.02,0,0,0,0,0,0,0,0,0,0,0,0,0-.02.01-.04.02-.06,0-.07,0-.12-.05-.16-.04-.04-.1-.06-.18-.06-.07,0-.13.02-.19.05,0-.03,0-.05-.01-.08s-.04-.03-.07-.03c-.04,0-.07.02-.09.08-.3.71-.47,1.11-.5,1.2-.06.15-.1.25-.12.3-.01.03-.01.05,0,.07,0,.02.02.04.05.05.02,0,.04,0,.06,0s.04-.02.05-.05c.01-.03.03-.05.04-.08.08-.2.2-.46.34-.77,0,0,0,0,.02,0,.21.06.38,0,.51-.17.03-.05.07-.07.09-.08.02,0,.06,0,.11,0,0,0,0,0,0,0-.02.04-.02.08-.03.12,0,.05,0,.09.01.13,0,.04.03.08.06.11.03.03.07.05.11.07.14.04.3-.03.47-.19-.02.12,0,.2.08.22.04.01.07,0,.11,0,.04-.02.07-.04.1-.07.02-.03.04-.07.07-.1s.05-.08.08-.13c.03-.05.05-.09.06-.1,0,0,0,0,0-.01,0,0,0,0,.01-.02,0,0,0-.01,0-.02,0,.11.03.18.08.23.02.02.05.04.09.04.03,0,.04-.01.06-.03-.01.03-.03.07-.04.1-.02.05-.03.11-.04.17-.02.13,0,.23.05.29.02.02.03.03.06.03.02,0,.04,0,.06-.02.02-.01.03-.03.04-.05s0-.04-.01-.06c-.02-.03-.03-.06-.02-.1.02-.13.06-.27.13-.42.06-.15.15-.33.25-.52ZM93.77,54.58s0,0,0,0c.02,0,.03,0,.03,0,0,0,0,.02,0,.04-.04.05-.09.08-.16.1.04-.06.08-.11.13-.13ZM92.89,54.89c-.06.03-.11.04-.17.03,0-.04.04-.07.1-.1s.13-.04.19-.04c-.02.04-.06.07-.12.1ZM93.12,54.57h0s0,.01,0,.01c0,0,0,0-.01,0,0,0,0,0-.01,0,0,0,0,0-.01,0,0,0,0,0-.01,0,0,0,0,0-.01,0s-.01,0-.01,0c-.13.02-.19.02-.19.02,0,0,0-.01,0-.02.04-.04.1-.08.19-.12.03-.01.06-.01.08,0,.01.01.02.04,0,.07,0,0,0,0,0,0Z"/>
          <path class="cls-8" d="M97.35,55.25s-.03-.02-.05-.02-.04,0-.05.02c-.01,0-.02.02-.04.04-.05.06-.12.12-.18.17-.07.05-.13.07-.2.07-.05,0-.08,0-.1-.02-.02-.02-.02-.05-.01-.1h0s.01,0,.02,0c0,0,.02,0,.02,0,.08,0,.16-.04.23-.08.07-.04.12-.1.15-.16.02-.04.02-.08.01-.11,0-.04-.02-.07-.05-.09-.02-.03-.05-.04-.09-.06-.03-.01-.07-.01-.11,0-.06.01-.11.05-.17.1-.06.06-.1.14-.13.21-.02-.01-.03-.02-.03-.03,0,0-.01-.01-.02-.03,0-.01-.01-.03-.01-.04,0,0,0-.02,0-.03s0-.02,0-.03c0,0,0-.02,0-.03s0-.02,0-.03c0,0,0-.02,0-.03,0-.01,0-.02,0-.03,0,0,0-.01.01-.03,0-.02,0-.03,0-.03.01-.03.01-.06,0-.09-.01-.03-.04-.04-.07-.05-.04,0-.08,0-.12.02s-.07.05-.1.08c-.04.05-.1.14-.18.25-.02.03-.04.06-.06.09,0,0,0,0,0,0s0,0,0,0c0,0,0-.01,0-.02.06-.11.09-.18.11-.2.02-.03.02-.05.02-.08,0-.02-.01-.04-.04-.06-.02-.01-.05-.02-.07-.01-.02,0-.05.02-.06.05-.04.06-.07.15-.1.23,0,0-.01,0-.02.01-.09.1-.18.17-.25.22-.01,0-.02,0-.03,0,0,0-.01-.02,0-.03.03-.12.08-.25.17-.42,0-.02.01-.03.02-.03,0,0,0-.02.01-.03,0-.01,0-.03,0-.04s0-.02-.02-.03c0-.01-.02-.02-.04-.03-.03-.02-.05-.02-.07,0-.02,0-.04.03-.06.05-.06.07-.12.16-.2.27,0,.01-.02.03-.04.05s-.03.04-.04.06c-.01.02-.02.03-.04.05s-.03.04-.04.05c-.01.01-.02.02-.03.02,0,0-.01,0-.02,0-.01-.03.01-.12.07-.25,0,0,.04-.08.12-.24.01-.02.01-.05,0-.07-.01-.02-.03-.04-.06-.05-.05-.01-.08,0-.11.05-.09.16-.16.31-.19.44-.02.06-.02.12,0,.18s.06.09.11.11c.04.01.07.01.11,0,.04-.01.07-.04.09-.07.02-.02.04-.05.06-.08,0,0,0,0,0,0,0,.03,0,.04,0,.05,0,.05.01.1.05.13.04.03.08.04.14.03.06-.01.12-.05.19-.11,0,.02,0,.04,0,.06.01.03.04.06.07.07.04.01.07,0,.11,0s.07-.04.09-.07c.02-.03.04-.06.07-.1.02-.03.05-.08.08-.13s.05-.09.06-.1c0,0,0,0,0-.01s0-.01.01-.02c0,0,0-.01,0-.01,0,.02,0,.05,0,.07,0,.07.03.12.08.16.02.02.05.04.09.04.01,0,.01,0,.02-.01,0,.02-.01.04-.01.07,0,.04,0,.09,0,.13,0,.04.02.07.05.11.03.03.07.05.11.07.06.02.12.02.19,0,.06,0,.12-.03.18-.06.06-.03.11-.07.16-.11.05-.04.09-.09.13-.14,0,0,.01-.02.02-.03,0-.02,0-.04,0-.06,0-.02-.01-.04-.03-.05ZM96.92,55.06s0,0,0,0c.02,0,.03,0,.03,0,0,.01,0,.02,0,.04-.04.05-.09.08-.16.1.03-.06.08-.11.13-.13Z"/>
        </g>
      </g>
      <g>
        <path class="cls-8" d="M132.72,4.13c.01.64.32.92.9,1.13-.68.21-1.32-.54-.9-1.13h0Z"/>
        <g>
          <path class="cls-8" d="M130.49,5.98s0-.01,0-.02c0-.01,0-.02,0-.03-.01.01-.03.02-.04.03-.03.02-.05.02-.08,0-.03-.01-.04-.03-.05-.06,0-.01,0-.03,0-.05,0-.16,0-.32.01-.48,0-.03,0-.05.02-.07.01-.02.04-.03.06-.03.05,0,.09.03.11.1.06.19.11.38.17.58,0,0,0,.02.01.03,0,0,.01,0,.03-.05.03-.07.07-.15.1-.23.04-.08.08-.17.12-.28.04-.1.08-.18.1-.23.03-.06.06-.1.09-.11.02,0,.04,0,.07,0,.02.01.03.03.03.06,0,.02,0,.05-.02.09-.16.37-.3.69-.42.95-.01.02-.01.05,0,.07.08.19.15.33.21.43.05.08.11.13.16.16s.08.07.06.11c0,.03-.02.04-.04.06-.02.01-.04.02-.07.02-.07,0-.15-.07-.23-.18-.05-.07-.11-.19-.19-.34,0,0,0-.02-.02-.04-.02.04-.03.06-.03.06-.14.33-.22.52-.24.55-.01.03-.02.05-.04.07-.03.04-.06.04-.1.02-.04-.02-.05-.05-.04-.1,0-.01.01-.03.02-.07.15-.35.25-.58.31-.71.01-.03.02-.06,0-.09,0,0-.03-.08-.07-.21Z"/>
          <path class="cls-8" d="M131.42,4.84c.07-.04.13-.04.19-.01.06.03.1.08.12.15.03.12.02.25-.05.38-.02.04-.04.06-.07.09-.03.02-.07.04-.1.04-.04,0-.07-.01-.1-.04-.04-.04-.07-.1-.07-.18,0,0,0,0,0-.01,0-.03,0-.07-.02-.11-.02-.05-.03-.11,0-.17.02-.06.06-.11.11-.14ZM131.61,5.06s0-.04-.01-.06c0-.02-.02-.04-.03-.05-.02-.01-.04-.01-.06,0,0,0-.01,0-.03.02h.01c.05.03.06.06.03.11,0,0-.01.02-.03.05,0,.01,0,.02,0,.04.02.03.02.06-.01.09,0,0-.01.02,0,.02,0,.03,0,.05.01.06,0,.01.01.02.02.02,0,0,.02,0,.02-.01.03-.04.06-.08.07-.13.01-.05.02-.1,0-.15Z"/>
        </g>
      </g>
      <g>
        <path class="cls-8" d="M107.75,19.14c.01.64.32.92.9,1.13-.68.21-1.32-.54-.9-1.13h0Z"/>
        <g>
          <path class="cls-8" d="M106.72,20.87s-.02-.05,0-.07c.02-.04.05-.12.1-.24,0-.02.02-.04.02-.06s0-.03,0-.05c0-.02-.02-.03-.04-.04-.05-.03-.1,0-.13.08,0,.02-.02.04-.03.07-.01.03-.02.05-.03.07,0,.01-.01.03-.01.03-.05-.07-.08-.12-.08-.13-.02-.03-.04-.04-.07-.04-.03,0-.05.02-.07.04-.03.04-.03.08,0,.12.06.1.1.16.12.18.02.02.02.05,0,.08-.03.06-.07.15-.12.26,0,.02-.02.04-.02.05,0,.01,0,.03,0,.05,0,.02.02.03.04.04.05.02.09,0,.13-.07,0,0,.02-.05.07-.15,0,0,0-.01.01-.02,0-.01,0-.02.01-.02,0,.01.02.03.03.04.02.03.04.07.07.1.04.05.09.06.15.03.02-.01.04-.03.04-.06,0-.02,0-.04-.02-.06-.08-.13-.13-.21-.14-.22Z"/>
          <path class="cls-8" d="M107.15,20.27s-.02-.05-.02-.08c0,0,0,0,0,0,0-.06-.02-.1-.05-.13-.02-.02-.04-.03-.07-.03-.03,0-.05.01-.07.03-.02.02-.04.04-.05.06-.05.09-.06.18-.03.26.01.05.04.09.09.11.04.02.09.02.14,0,.04-.02.06-.05.08-.1.02-.04.02-.08,0-.12ZM107.02,20.29s-.01.03-.02.03c-.02.03-.01.06.02.07h0s-.02.02-.02.02c-.02,0-.03,0-.04,0-.01,0-.02-.02-.02-.04,0-.02,0-.03,0-.04,0-.04,0-.07,0-.11,0-.03.03-.07.05-.09,0,0,.01-.01.02-.01s.01,0,.01.02c0,0,0,.02.01.04,0,0,0,.01,0,.02-.02.02-.02.04,0,.06,0,0,0,.02,0,.03Z"/>
        </g>
      </g>
      <g>
        <path class="cls-8" d="M96.67,45.34c1.08-.32,1.76.73,1.11,1.65.05-.42.12-.85-.09-1.15-.2-.33-.65-.43-1.02-.5h0Z"/>
        <g>
          <path class="cls-8" d="M99.32,45.26s0,.01,0,.01c0,0,0,0,0,0,.01-.02.02-.04.03-.05.05-.08.14-.28.29-.59.07-.14.17-.35.31-.65.05-.11.11-.15.18-.11.05.02.07.06.06.12,0,.02-.01.05-.02.08-.01.04-.02.06-.02.07,0,.02-.02.07-.04.14-.02.08-.04.13-.04.16s-.02.08-.04.15-.03.12-.04.16c0,.04-.02.09-.03.15-.01.06-.03.12-.03.16,0,.04-.01.09-.02.14,0,.05-.01.1-.01.14,0,.04,0,.08,0,.12,0,.01,0,.03,0,.05,0,.02,0,.04,0,.06,0,.02,0,.03,0,.05,0,.02,0,.03-.02.04-.01.01-.02.02-.04.02-.03,0-.06,0-.08-.02-.02-.02-.04-.04-.04-.07,0-.03-.01-.06-.02-.09s0-.06,0-.08c0-.18.02-.35.05-.52,0-.03.01-.05.01-.06,0,0,0,0,0,0,0,0,0,0,0,0,0,.01-.02.03-.03.05-.11.22-.17.35-.19.37-.05.1-.11.16-.16.2-.04.02-.08.03-.12.02-.04,0-.07-.03-.09-.07-.01-.02-.02-.05-.03-.07,0-.03-.01-.05-.02-.07,0-.02,0-.05,0-.09,0-.04,0-.06,0-.08s0-.04,0-.09c0-.04,0-.07,0-.08,0-.04,0-.09.01-.16-.02.04-.03.08-.05.12-.02.04-.03.1-.05.15-.02.06-.04.1-.04.13-.07.2-.13.35-.18.47-.01.03-.03.05-.05.07-.02.02-.05.03-.08.03s-.05-.02-.08-.05c-.05-.07-.06-.18-.03-.34,0-.03.03-.15.08-.35.01-.06.04-.09.07-.09s.06,0,.08.02c.02.02.03.05.04.09.04-.08.09-.21.16-.39.07-.18.13-.32.18-.41.02-.05.04-.1.07-.14,0-.01.01-.02.01-.03s0-.01.01-.03c0-.01.01-.02.02-.03l.02-.02s.02-.01.03-.02c0,0,.02,0,.03,0,.01,0,.02,0,.03,0,.02,0,.04.02.05.04.01.02.02.04.02.06,0,.02,0,.05-.02.11-.09.43-.14.78-.16,1.03,0,0,0,.03,0,.06Z"/>
          <path class="cls-8" d="M100.72,43.65c.08-.02.14,0,.19.04.05.05.07.11.07.18,0,.13-.05.24-.15.35-.03.03-.06.05-.1.06s-.07.02-.11,0c-.04,0-.07-.03-.09-.07-.03-.05-.04-.11-.02-.19,0,0,0,0,0-.01.01-.03.02-.07,0-.11,0-.06,0-.11.05-.17.04-.05.09-.08.14-.1ZM100.84,43.92s0-.04,0-.06c0-.02,0-.04-.02-.06-.01-.02-.03-.02-.05-.02,0,0-.01,0-.04.01h0s.05.08,0,.12c0,0-.02.02-.04.04,0,0-.01.02,0,.04,0,.03,0,.06-.04.08,0,0-.01.01-.02.02,0,.03,0,.05,0,.06,0,.01,0,.02.01.02,0,0,.02,0,.03,0,.04-.03.08-.06.1-.1.03-.04.04-.09.05-.14Z"/>
        </g>
      </g>
      <g>
        <path class="cls-8" d="M92.07,63.26c-.03.61-.03,1.15.37,1.63-.66-.2-.77-1.14-.37-1.63h0Z"/>
        <g>
          <path class="cls-8" d="M89.5,64.99s0,0-.02,0c.02.05.03.08.03.08.03.16,0,.31-.12.44-.02.02-.05.04-.08.05-.03.01-.06.01-.09,0-.07-.02-.1-.08-.09-.19,0-.11.04-.24.08-.39,0-.04,0-.07-.01-.1-.1-.15-.11-.31-.04-.49.08-.21.22-.39.4-.54.06-.04.12-.08.19-.11.07-.03.14-.04.21-.04.08,0,.14.02.2.05.05.03.09.08.12.13.03.06.04.12.04.18,0,.06,0,.12-.03.18-.06.17-.16.32-.31.45-.15.13-.31.22-.49.28ZM89.59,64.53c-.05.1-.09.19-.11.28.03,0,.04-.01.04-.01.14-.05.26-.13.38-.24.11-.11.19-.22.23-.34.02-.06.03-.12.03-.17,0-.05-.03-.09-.06-.12-.04-.03-.08-.04-.13-.04-.08,0-.16.03-.23.08-.2.14-.33.32-.41.54,0,.01,0,.03-.01.04,0,.02,0,.03,0,.06,0,.02,0,.04,0,.04,0,0,0,.01.01.04.02-.04.03-.06.03-.06.08-.15.13-.27.17-.35,0-.02.02-.03.03-.04.02-.02.04-.03.06-.03.02,0,.04,0,.06.02.04.03.04.07.01.12-.05.09-.08.14-.1.17Z"/>
          <path class="cls-8" d="M91.02,63.69c.08,0,.14.04.17.09.03.06.04.12.02.2-.04.12-.12.22-.24.29-.03.02-.07.03-.11.03-.04,0-.08,0-.11-.02s-.06-.05-.07-.09c-.02-.06,0-.12.04-.19,0,0,0,0,0-.01.02-.02.03-.06.04-.1,0-.06.04-.11.09-.15.05-.04.11-.06.17-.06ZM91.06,63.98s.01-.04.02-.06c0-.02,0-.04,0-.06,0-.02-.02-.03-.05-.03,0,0-.01,0-.04,0h0c.03.06.02.09-.03.12,0,0-.03.01-.05.03-.01,0-.02.02-.02.03,0,.04-.02.06-.06.07,0,0-.02,0-.02.01-.01.03-.02.04-.02.06,0,.01,0,.02,0,.03,0,0,.02,0,.03,0,.05-.01.09-.04.13-.07.04-.04.07-.08.09-.12Z"/>
        </g>
      </g>
      <g>
        <path class="cls-8" d="M99.95,14.31c-.05-.05-.11-.08-.17-.12-.01-.02-.04-.04-.06-.04-.32-.2-.71-.31-1.1-.3-.04.01-.06.05-.05.08.03.12.06.24.08.36-4.5.88-8.52,4.44-9.3,9.03,1.33-4.61,4.62-7.96,9.35-8.8.06.24.13.48.26.71.05.06.18.05.22-.02.13-.29.32-.66.56-.84.05-.02.06-.07.06-.12.04.03.09.05.13.08.01,0,.03,0,.02-.02ZM98.74,13.99c.29,0,.59.04.86.16-.26.03-.53.07-.79.11-.02-.09-.05-.18-.07-.27ZM99.07,14.99c-.08-.15-.14-.31-.19-.49.16-.03.32-.05.48-.07-.12.17-.2.35-.28.55Z"/>
        <g>
          <path class="cls-8" d="M88.71,22.85s.01-.03.02-.05c0-.01,0-.03.01-.05s0-.04,0-.05c0-.01-.02-.02-.04-.03,0,0-.01,0-.03,0-.01,0-.02,0-.03,0s-.02,0-.03,0c-.01,0-.02.01-.02.01,0,0-.01,0-.02.02,0,0-.02.01-.02.02s-.01.01-.02.02c0,0-.02.02-.02.02,0,0-.01.01-.02.02,0,0-.01.01-.02.02-.06.07-.16.18-.3.33-.14.15-.24.27-.31.35-.02.02-.04.04-.06.04-.13.05-.25.13-.38.23-.14.11-.24.24-.3.37-.01.03-.02.07-.03.09,0,0,0,0,0,.01,0,.07.03.1.12.08.06-.01.11-.04.15-.07.06-.05.11-.1.15-.14,0,0,.13-.14.39-.43.02-.02.03-.03.04-.03.07-.02.13-.02.19,0-.02.07-.03.11-.04.12-.05.19-.08.36-.08.5,0,.02,0,.03,0,.05,0,.02,0,.03.01.05,0,.02.02.03.03.04s.03.01.05,0c.03,0,.05-.02.07-.05.02-.03.03-.05.03-.08-.02-.29.09-.66.31-1.08.07-.14.14-.27.2-.38ZM88.25,23.38c-.03.06-.05.1-.05.12,0,0-.02,0-.05,0-.03,0-.05,0-.06,0,.12-.14.19-.22.22-.25,0,0,0,0,0,0,0,0,0,0,0,0-.02.03-.04.08-.07.14Z"/>
          <path class="cls-8" d="M90.37,23.42s-.05-.03-.09-.02c-.03,0-.06.04-.1.08-.01.02-.16.2-.45.55-.02.02-.03.03-.04.04,0,0-.01,0-.01,0,0,0,0,0,0-.01,0-.02.01-.03.02-.05.01-.03.03-.07.06-.13s.05-.11.06-.14c.02-.05.03-.08.04-.1,0-.03,0-.06-.02-.08-.02-.02-.05-.03-.08-.02,0,0-.02,0-.03,0,0,0-.02,0-.02.01,0,0-.02,0-.02.02,0,0-.02.01-.02.02,0,0-.01.01-.02.02s-.02.02-.02.02c0,0,0,.01-.02.02,0,.01-.02.02-.02.02,0,0-.08.1-.22.27-.02.02-.03.04-.04.04,0,0,0,0,0,0,0,0,0-.02.02-.06.01-.03.03-.07.05-.12.02-.05.04-.09.05-.11.02-.03.01-.06-.01-.08-.02-.02-.05-.03-.09-.03-.04,0-.06.02-.08.05-.05.09-.07.16-.1.24-.02-.01-.03-.02-.03-.02-.02-.01-.03-.02-.03-.03,0,0-.01-.01-.02-.03,0-.01-.01-.03-.01-.04,0,0,0-.02,0-.03s0-.02,0-.03,0-.02,0-.03c0-.01,0-.02,0-.03,0,0,0-.02,0-.03,0-.01,0-.02,0-.03,0,0,0-.01,0-.03,0-.02,0-.02,0-.03.01-.03,0-.06,0-.09-.01-.03-.04-.04-.07-.05-.04,0-.08,0-.12.02-.04.02-.07.05-.09.09-.04.06-.09.14-.17.26-.02.03-.03.06-.05.1,0,0,0,0,0,0s0,0,0,0c0,0,0-.01,0-.02.05-.12.09-.19.1-.21.01-.03.02-.05.01-.08,0-.02-.02-.04-.04-.06-.02-.01-.05-.02-.07,0s-.04.02-.06.05c-.07.1-.12.23-.16.4,0,.03,0,.07-.01.1,0,.04,0,.07.02.1.02.03.04.06.07.07.04.01.07,0,.11-.01.04-.02.07-.04.09-.08.02-.03.04-.07.06-.1.02-.04.04-.08.07-.14.03-.05.05-.09.06-.11,0,0,0,0,0-.01,0,0,0-.01.01-.02,0,0,0-.01,0-.01,0,.02,0,.05,0,.07.01.07.04.12.08.16.02.02.05.04.09.04.01,0,.03,0,.06,0-.01.04-.03.09-.04.13-.01.05,0,.1.02.14.03.04.07.06.12.05.02,0,.05-.02.07-.04.03-.02.05-.04.06-.05.01-.01.03-.04.06-.07.02-.03.04-.05.05-.06,0,0,0-.01.02-.03,0-.01.02-.02.02-.02,0,.03,0,.05,0,.06,0,0,0,.01,0,.02,0,.01,0,.02,0,.03,0,0,0,.01,0,.03,0,.01,0,.02,0,.03,0,0,0,.01,0,.03,0,.01,0,.02,0,.03,0,0,0,.01.01.02,0,0,.01.02.02.02,0,0,.01.01.02.02.07.04.16,0,.26-.12,0,0,.03-.04.08-.09.04-.05.08-.1.1-.12,0,.02,0,.03-.01.04,0,0,0,.02,0,.02-.04.14-.05.26-.02.35,0,.01,0,.03.02.04.03.04.06.05.1.05.04,0,.05-.02.05-.05-.04-.23.04-.51.24-.87.02-.03.03-.05.03-.06.01-.03,0-.06-.02-.09Z"/>
        </g>
      </g>
    </g>
    <g>
      <path class="cls-8" d="M58.89,31.25c-5.41,1.87-10.88,3.59-16.38,5.17,5.41-1.87,10.88-3.59,16.38-5.17h0Z"/>
      <path class="cls-8" d="M45.84,51.3c-9.05,3.02-18.15,5.89-27.29,8.61,9.05-3.02,18.15-5.89,27.29-8.61h0Z"/>
      <path class="cls-8" d="M58.91,54.02c-.17-3.58-.17-7.15,0-10.73.17,3.58.17,7.15,0,10.73h0Z"/>
      <g>
        <path class="cls-8" d="M35.92,37.12c.33.09.55.31.64.64-.33-.09-.55-.31-.64-.64h0Z"/>
        <path class="cls-8" d="M35.92,34.15c1.04.8,1.97,1.73,2.77,2.77-1.04-.8-1.97-1.73-2.77-2.77h0Z"/>
        <path class="cls-8" d="M36.14,31.41c1.59,1.36,3.07,2.83,4.43,4.43-1.59-1.35-3.07-2.83-4.43-4.43h0Z"/>
        <path class="cls-8" d="M36.46,28.76c2.26,2.02,4.4,4.16,6.41,6.41-2.26-2.02-4.4-4.16-6.41-6.41h0Z"/>
        <path class="cls-8" d="M37.24,26.57c2.76,2.53,5.41,5.17,7.94,7.94-2.77-2.53-5.41-5.17-7.94-7.94h0Z"/>
        <path class="cls-8" d="M38.34,24.71c3.04,2.8,5.96,5.72,8.76,8.76-3.04-2.8-5.96-5.72-8.76-8.76h0Z"/>
        <path class="cls-8" d="M46.51,29.91c1.15.91,2.18,1.94,3.08,3.08-1.15-.91-2.17-1.94-3.08-3.08h0Z"/>
        <path class="cls-8" d="M40.05,23.45c1.23.99,2.34,2.1,3.33,3.33-1.23-.99-2.34-2.1-3.33-3.33h0Z"/>
        <path class="cls-8" d="M48.79,29.22c1.04.8,1.96,1.72,2.75,2.75-1.04-.8-1.95-1.72-2.75-2.75h0Z"/>
        <path class="cls-8" d="M41.33,21.76c1.58,1.34,3.04,2.8,4.38,4.38-1.58-1.34-3.04-2.8-4.38-4.38h0Z"/>
        <path class="cls-8" d="M50.33,27.79c1.36,1.12,2.59,2.36,3.71,3.71-1.36-1.12-2.59-2.36-3.71-3.71h0Z"/>
        <path class="cls-8" d="M43.39,20.85c1.77,1.53,3.42,3.18,4.96,4.96-1.77-1.53-3.42-3.19-4.96-4.96h0Z"/>
        <path class="cls-8" d="M45.76,20.25c3.64,3.41,7.17,6.93,10.57,10.57-3.64-3.4-7.17-6.93-10.57-10.57h0Z"/>
        <path class="cls-8" d="M48.72,20.25c3.2,2.97,6.29,6.05,9.26,9.26-3.21-2.97-6.29-6.05-9.26-9.26h0Z"/>
        <path class="cls-8" d="M52.09,20.65c1.47,1.24,2.83,2.59,4.06,4.06-1.47-1.23-2.83-2.59-4.06-4.06h0Z"/>
        <g>
          <path class="cls-8" d="M47.91,28.14c-.03-.13-.05-.27-.05-.44s0-.36.02-.58c0-.06.03-.09.08-.11.1-.03.3-.1.6-.19.02,0,.03,0,.03-.01s.02,0,.03-.01c.01,0,.02-.01.03-.02,0,0,0-.02.01-.03,0-.01,0-.03,0-.04,0-.04-.02-.06-.04-.07-.02-.01-.04-.01-.06,0-.02,0-.04.01-.07.02-.03,0-.2.06-.5.16,0,0-.03.01-.06.02,0,0,0,0,0,0,0,0,0,0,0,0,0-.03,0-.06,0-.11,0-.05,0-.08,0-.1,0-.03,0-.05-.02-.07-.02-.02-.04-.03-.06-.03-.02,0-.04,0-.06.02-.02.01-.03.03-.04.06,0,.03-.01.06-.01.1,0,.03,0,.07-.01.12s0,.08,0,.1c0,0,0,0,0,0-.23.09-.36.14-.39.15-.08.03-.13.05-.16.06-.02.01-.04.03-.05.05,0,.02,0,.05,0,.07,0,.02.02.03.04.04.01,0,.03.01.04,0,.02,0,.03,0,.05-.01.03-.01.08-.03.17-.07.02,0,.04-.01.06-.02-.02.02-.05.06-.06.11,0,0-.08.23-.22.66-.01.04-.02.06-.03.06,0,0,0,0,0,0s0,0,0,0c0-.01,0-.03,0-.06,0,0,0-.1.01-.27,0-.02,0-.03-.01-.05,0-.02-.02-.03-.04-.03-.03-.01-.06,0-.1.01s-.05.05-.05.08c0,.1,0,.16,0,.23-.04.12-.09.22-.13.29,0,.01-.02.02-.03.01-.01,0-.02-.01-.02-.02-.02-.12-.02-.27-.01-.45,0-.02,0-.03,0-.04,0,0,0-.02,0-.03,0-.02,0-.03-.01-.03s-.01-.01-.03-.02c-.01,0-.03-.01-.05-.01-.03,0-.05,0-.06.02-.01.02-.02.04-.03.07-.02.09-.05.2-.08.33,0,.01,0,.03-.01.06s-.01.05-.02.07c0,.02,0,.04-.01.07,0,.02-.01.04-.02.06,0,.02-.01.02-.02.03,0,0-.01,0-.02,0-.02-.03-.03-.11-.03-.26,0,0,0-.09.01-.26,0-.03,0-.05-.02-.07-.02-.02-.04-.02-.07-.02-.04,0-.06.03-.08.06-.04.08-.09.17-.15.26-.03-.09-.09-.15-.17-.18-.08-.03-.16-.03-.24.02-.07.04-.12.1-.15.18-.03.08-.03.16,0,.23,0,.02,0,.03,0,.04,0,.01,0,.02-.01.04-.02.04-.03.07-.03.09,0,.01-.02.04-.04.08-.02.04-.03.07-.04.09-.01.02-.03.05-.05.08-.02.03-.04.06-.06.08s-.04.04-.06.06c-.02.02-.05.04-.07.05-.04.02-.08.02-.11,0-.04-.01-.07-.04-.09-.07s-.04-.07-.06-.11c-.01-.04-.03-.07-.03-.11-.06-.33-.01-.65.14-.97.06-.12.13-.2.21-.25.03-.01.05-.02.08-.03.03,0,.05,0,.07,0s.04.03.05.06c.02.05.03.11.02.18,0,.07-.03.13-.06.19-.02.04-.04.07-.07.08-.02-.02-.04-.03-.04-.03-.02-.01-.04-.02-.06-.02-.02,0-.04,0-.06.02-.01.01-.02.03-.03.05s0,.04.01.06c.03.06.07.09.12.1.05,0,.1,0,.15-.03.05-.03.09-.07.11-.11.05-.09.08-.19.1-.3.01-.11,0-.21-.04-.29-.02-.05-.06-.09-.1-.12s-.09-.04-.13-.04-.09,0-.14.03c-.05.02-.09.04-.13.07-.07.06-.14.13-.19.22-.06.09-.1.18-.13.28-.03.09-.06.19-.07.29-.04.25-.04.47.02.67.06.2.16.31.31.35.07.01.14,0,.21-.01.06-.02.12-.06.18-.12.06-.07.12-.16.18-.27.01-.03.02-.05.03-.08.01.03.01.07.04.09.04.04.08.05.14.05.05,0,.1-.02.14-.05.04-.03.07-.07.1-.12.05-.1.08-.2.08-.29.03-.04.06-.08.1-.13,0,.05,0,.09.02.13.01.06.04.12.07.16.04.04.09.06.15.06.04,0,.07-.02.1-.04.03-.03.05-.06.06-.1,0-.03.02-.06.02-.09,0,0,0,0,0,0,0,.03.01.04.02.05.02.05.05.09.09.1.05.01.09,0,.14-.03.04-.03.09-.08.12-.15.03.05.07.08.11.09.05,0,.09-.02.13-.07.02-.03.04-.06.05-.11l.08-.25s.01-.03.02-.04c0,.04,0,.06,0,.06,0,.06.01.12.03.18.02.07.05.13.08.16.02.02.05.03.08.03.03,0,.05-.02.07-.05,0,0,0-.02,0-.02-.06-.12-.1-.25-.11-.4s0-.31.03-.49c0-.04,0-.06,0-.07,0-.04-.02-.07-.05-.08-.02,0-.04,0-.06,0,.04-.01.08-.03.1-.04.03-.01.06-.01.07,0,.02.01.02.04.02.07,0,.02,0,.07,0,.17,0,.1,0,.17,0,.2,0,.03,0,.09,0,.16,0,.08,0,.14.01.2s.02.11.03.17c.03.13.08.21.16.25.02.01.04.01.06,0,.02,0,.04-.02.05-.04s.02-.04.01-.06c0-.02-.01-.04-.04-.05-.03-.02-.05-.05-.06-.08ZM45.8,28.55s-.02.02-.04.02c0,0-.02-.01-.02-.03,0-.02-.01-.03-.02-.05.03,0,.05,0,.08,0,0,0,.01,0,.02,0,0,0,.02,0,.03-.01-.02.03-.03.05-.05.08ZM45.77,28.32s-.02,0-.03-.02,0-.03,0-.04c.02-.03.03-.05.04-.06.04-.06.03-.11-.04-.14h-.01s.04-.04.04-.04c.03-.01.05-.01.08,0,.02.02.04.04.04.07,0,.03.01.06.02.08,0,.02,0,.03,0,.05-.06.05-.1.08-.14.09Z"/>
          <path class="cls-8" d="M49.35,27.28s-.03,0-.04-.01c0,0-.02,0-.03-.02-.01,0-.02-.02-.03-.03,0,0,0-.02-.01-.03,0-.01,0-.02,0-.03,0,0,0-.02,0-.03,0-.01,0-.02,0-.03,0,0,0-.02,0-.03,0-.01,0-.02,0-.03,0,0,0-.01,0-.03,0-.02,0-.02,0-.03,0-.03-.02-.06-.04-.08-.02-.02-.05-.02-.09-.02-.04,0-.08.03-.1.07s-.04.07-.06.11c-.04.19-.07.32-.08.41,0,0,0,0,0,0,0,0,0,0,0,0,0,0,0-.01,0-.02,0-.13.01-.2.01-.23,0-.03,0-.06-.01-.08-.01-.02-.03-.03-.06-.04-.05,0-.08.02-.1.08,0,.02-.02.05-.03.08-.01.04-.02.06-.03.08-.06.17-.12.3-.17.38-.03.05-.06.09-.09.11-.08.05-.13.02-.15-.07h0s.01-.01.02-.02c0,0,.01,0,.02-.01.07-.04.13-.1.18-.16.05-.07.07-.14.07-.21,0-.04-.01-.08-.03-.11-.02-.03-.05-.05-.08-.07-.03-.01-.07-.02-.1-.02-.04,0-.07.02-.1.04-.07.05-.11.12-.14.21-.03.09-.04.19-.04.28,0,.04,0,.08.03.12.02.04.04.08.06.11.02.03.06.06.1.08.04.02.08.02.13.02.14-.02.26-.14.36-.36.03.12.08.18.16.17.04,0,.07-.02.1-.05.03-.03.05-.07.06-.11,0-.04.02-.08.02-.12,0-.04.01-.09.02-.15s.01-.1.01-.12c0,0,0,0,0-.01,0,0,0-.01,0-.02,0,0,0-.01,0-.02.04.1.1.16.17.18.03.01.06.01.1,0,.04-.01.06-.04.06-.07,0-.05,0-.08-.04-.09ZM48.28,27.37s0,0,0,0c.01-.02.02-.02.03-.01s.01.02,0,.04c-.02.06-.05.11-.11.15,0-.07.03-.13.06-.17Z"/>
        </g>
      </g>
      <path class="cls-8" d="M47.1,66.39c-6.7.27-12.47-5.97-11.88-12.61,0-2.15.03-4.3.08-6.45.05,2.15.08,4.3.08,6.45-.44,6.59,5.09,12.6,11.71,12.62h0Z"/>
      <path class="cls-8" d="M74.08,54.57s-.08-20.53-.08-20.53c.01-3.4.04-6.86-.91-10.16-2.52-9.97-11.14-18-21.3-19.72-6.71-1.25-13.88.21-19.6,3.97,5.69-3.86,12.87-5.37,19.63-4.13,10.22,1.68,19,9.76,21.47,19.83.94,3.31.9,6.8.87,10.21,0,0-.08,20.53-.08,20.53h0Z"/>
      <path class="cls-8" d="M20.11,65.21c-.15-14.48-.16-28.97,0-43.45.16,14.48.15,28.97,0,43.45h0Z"/>
      <path class="cls-8" d="M35.3,40.25c-.15-5.64-.16-11.28,0-16.92.16,5.64.15,11.28,0,16.92h0Z"/>
      <path class="cls-8" d="M26.79,72.35c7.5,8.51,20.31,11.46,30.78,7.1-10.38,4.7-23.5,1.66-30.78-7.1h0Z"/>
      <g>
        <path class="cls-8" d="M70.47,77.74c-3.77-.43-8.36-.73-11.19-3.62.14-.08.26-.18.37-.33.08-.37-.32-.42-.55-.5-.2,0-.89-.29-.79.09.18.27.38.51.59.74-.14.07-.29.12-.42.18-.01-.49-.19-.94-.43-1.34,0-.01-.03,0-.02.01.23.45.34.96.32,1.45.01.04.05.06.09.05.2-.08.4-.14.59-.22,1.29,1.33,3.12,2.06,4.88,2.56,2.11.66,4.33,1.04,6.55.93ZM58.71,73.47c.31.03.7.08.76.25-.07.11-.19.19-.32.27-.15-.16-.3-.34-.44-.52Z"/>
        <g>
          <path class="cls-8" d="M72.39,76.89c-.09-.01-.18,0-.28.02s-.18.07-.27.12c-.08.06-.16.12-.22.19-.07.07-.12.15-.17.23-.04.07-.06.14-.07.22,0,.08,0,.15.04.23.01.03.01.06,0,.1-.08.15-.13.29-.17.42-.01.06,0,.11.05.15.03.02.06.03.09.02.03,0,.06-.01.09-.04.15-.12.22-.28.2-.46,0,0,0-.02,0-.05.18-.07.33-.1.48-.08.06,0,.11.03.15.07.04.04.05.08.03.14-.04.1-.11.2-.22.27-.21.15-.43.22-.65.22-.11,0-.19-.04-.24-.1-.01-.02-.03-.03-.05-.03-.02,0-.04,0-.06,0-.03.02-.04.04-.04.07,0,.03,0,.05.03.08.03.04.08.08.14.11s.12.04.18.04c.06,0,.12,0,.18,0,.09-.01.18-.03.27-.06.09-.03.18-.07.26-.11.08-.04.16-.1.23-.17.07-.07.12-.14.15-.22.04-.1.05-.2,0-.28-.04-.08-.11-.15-.23-.18-.02,0-.08-.02-.17-.04.03-.02.05-.03.05-.04.06-.04.1-.07.15-.11.04-.04.09-.08.13-.12.05-.05.08-.1.11-.15.03-.05.05-.11.06-.16.01-.08,0-.15-.05-.21-.04-.06-.1-.09-.18-.11ZM72.41,77.26s-.04.07-.07.11c-.03.03-.06.06-.08.09-.02.02-.06.05-.09.08-.04.03-.09.07-.14.1-.05.04-.1.06-.12.08-.03.02-.08.04-.15.08,0,0,0,0,0,0,0,0,0,0,0,0,.02-.03.02-.04.03-.04.11-.13.18-.23.22-.28.04-.04.04-.08,0-.12-.02-.02-.04-.03-.06-.03-.02,0-.05,0-.07.02-.01.01-.02.02-.04.04-.04.05-.12.16-.24.31,0,0-.01.02-.03.05,0-.06,0-.13.06-.21.07-.12.17-.22.29-.31.15-.11.28-.16.4-.15.1,0,.14.03.13.09,0,.04-.02.08-.03.11Z"/>
          <path class="cls-8" d="M75.18,77.16s-.04-.08-.08-.1c-.04-.02-.08-.01-.13.01-.04.02-.08.05-.12.09-.04.04-.08.09-.1.13-.17.27-.28.53-.34.8-.01,0-.02,0-.04-.01-.03,0-.05-.01-.07-.02-.02,0-.03-.02-.03-.03,0,0,0-.02,0-.05.02-.07.02-.11.02-.11,0-.04,0-.07-.03-.08-.02-.02-.05-.02-.09,0-.04.01-.07.05-.09.09-.02.05-.03.09-.02.14,0,.03,0,.05,0,.07-.03.11-.07.2-.12.27-.02.03-.03.05-.05.07,0,0,0-.02,0-.06,0-.08.01-.19.03-.34,0-.02,0-.04,0-.06s-.02-.03-.04-.04c-.05-.02-.1,0-.14.07-.02.03-.06.09-.11.17-.05.08-.09.13-.12.17,0,0,0,0,0,0,0,0,0,0,0,0,.02-.14.06-.29.13-.44.03-.07.02-.12-.02-.14-.05-.02-.09,0-.13.05-.05.06-.11.12-.19.18,0-.09-.04-.17-.1-.22-.06-.06-.14-.07-.24-.05-.08.02-.14.06-.2.13-.05.07-.08.14-.07.22,0,.06,0,.11-.02.15,0,0,0,0,0,.02-.03.1-.02.19.02.26.03.05.06.08.11.09.05.01.1.01.15,0,.05-.02.09-.04.13-.08.08-.08.13-.16.17-.25.03-.02.07-.05.11-.08,0,.02,0,.03,0,.05-.03.14-.03.24,0,.31.01.04.04.07.07.08.04.01.07.01.11,0,.02,0,.04-.02.05-.04.02-.02.03-.03.04-.04,0-.01.02-.03.04-.06s.03-.04.04-.05c0,0,0,0,0,0,0,0,0,0,0,0,0,0,0,0,0,0,0,0,0,0,0,0,0,0,0,0,0,0,0,.05.02.1.03.15.02.06.05.1.1.11.05.01.1,0,.15-.04.02-.01.04-.03.05-.05.02-.02.03-.04.05-.06s.03-.04.04-.06c0-.02.02-.04.04-.07.01-.03.03-.05.03-.07,0,0,0-.02.02-.04.03.01.05.02.05.02.04.02.08.02.12.02-.01.08-.05.17-.05.25,0,.06.02.11.08.15.06.03.11.03.17,0,.07-.04.14-.09.21-.16.07-.07.13-.14.18-.21.04-.05.03-.1-.02-.13,0,0-.02,0-.02-.01,0,0-.02,0-.02,0,0,0-.01,0-.02,0,0,0-.01,0-.02,0,0,0-.01,0-.02.01,0,0-.01.01-.02.02,0,0,0,0-.02.02,0,0-.01.01-.01.02-.09.11-.17.19-.24.25-.01,0-.02,0-.03,0,0,0,0-.02,0-.03.02-.16.05-.31.11-.46,0-.03.02-.04.04-.05.04-.02.09-.05.13-.08.04-.03.08-.07.13-.11.04-.04.08-.08.12-.13.03-.04.06-.09.09-.14.03-.05.04-.1.05-.15,0-.05,0-.1,0-.16ZM72.85,78.38s-.03,0-.04,0c0,0-.01-.02-.02-.03,0-.02,0-.03,0-.06,0,0,.01,0,.04.02.02,0,.05.01.08,0-.02.02-.05.04-.08.06ZM73.07,78.06s0,.03-.01.05c-.07.03-.12.05-.16.04-.01,0-.02,0-.02-.02,0-.02,0-.03.01-.04.02-.02.04-.04.05-.05.06-.05.06-.1,0-.14h-.01s.05-.03.05-.03c.03,0,.06,0,.07.03.02.02.02.05.02.08,0,.03,0,.06,0,.08ZM74.9,77.49c-.06.1-.11.16-.15.17.02-.06.06-.13.11-.22.06-.09.1-.15.14-.17,0,.04-.04.12-.1.22Z"/>
        </g>
      </g>
    </g>
    <g>
      <g>
        <path class="cls-8" d="M218.89,44.3l.85.53s0,0,0,.01c0,0,0,0-.01,0,0,0,0,0,0,0l-.84-.55Z"/>
        <path class="cls-8" d="M220.54,45.43l.75.66s.01.03,0,.04c-.01.01-.03.01-.04,0,0,0,0,0,0,0l-.73-.68s-.01-.02,0-.03c0,0,.02,0,.03,0Z"/>
        <path class="cls-8" d="M221.98,46.82l.63.78s.01.05,0,.07c-.02.02-.05.01-.07,0,0,0,0,0,0,0l-.61-.79s-.01-.04,0-.06c.02-.01.04-.01.06,0Z"/>
        <path class="cls-8" d="M223.18,48.43l.49.88s0,.07-.02.09c-.03.02-.07,0-.09-.02,0,0,0,0,0,0h0s-.47-.88-.47-.88c-.02-.03-.01-.06.02-.08.03-.02.07,0,.08.02Z"/>
        <path class="cls-8" d="M224.07,50.23l.33.95s0,.08-.04.09c-.04.01-.08,0-.09-.04h0s0,0,0,0l-.32-.94h0s0-.08.04-.09c.04-.01.07,0,.09.04Z"/>
        <path class="cls-8" d="M224.66,52.15l.17.99s-.02.08-.06.09-.08-.02-.09-.06h0s0,0,0,0l-.16-.98h0s.02-.09.06-.09c.04,0,.08.02.09.06Z"/>
        <path class="cls-8" d="M224.91,54.14c.01.34.01.67,0,1.01,0,.05-.04.08-.09.08-.05,0-.08-.04-.08-.09h0c.01-.33.02-.66,0-1,0-.04.03-.08.08-.08.04,0,.08.03.08.08Z"/>
        <path class="cls-8" d="M224.83,56.15l-.17.99s-.06.08-.1.07-.08-.06-.07-.1h0s0,0,0,0l.17-.98h0c0-.06.05-.09.1-.08.05,0,.08.05.07.1Z"/>
        <path class="cls-8" d="M224.41,58.12l-.33.96c-.02.05-.07.08-.12.06-.05-.02-.08-.07-.06-.12h0s0,0,0,0l.33-.94h0c.02-.06.07-.08.12-.07.05.02.07.07.06.12Z"/>
        <path class="cls-8" d="M223.67,60l-.49.88c-.03.05-.09.07-.14.04s-.07-.09-.04-.14h0s0,0,0,0l.48-.87h0c.03-.06.09-.07.14-.05.05.03.07.09.04.14Z"/>
        <path class="cls-8" d="M222.63,61.72l-.63.79s-.11.06-.16.02c-.05-.04-.06-.11-.02-.16h0s0,0,0,0l.62-.77h0c.04-.05.11-.06.15-.02.05.04.05.1.02.15Z"/>
        <path class="cls-8" d="M221.31,63.25l-.75.68s-.12.04-.17,0c-.04-.05-.04-.12,0-.17h0s0,0,0,0l.74-.66h0s.12-.04.16,0c.04.05.04.12,0,.16Z"/>
        <path class="cls-8" d="M219.76,64.54l-.85.54c-.06.04-.14.02-.17-.04s-.02-.14.04-.17h0s0,0,0,0l.84-.53h0c.06-.04.13-.02.17.03.04.06.02.13-.04.17Z"/>
        <path class="cls-8" d="M218.01,65.54l-.93.39c-.06.02-.13,0-.15-.06-.02-.06,0-.13.06-.15h0s.91-.39.91-.39h0c.06-.03.13,0,.16.06.03.06,0,.13-.06.16h0Z"/>
        <path class="cls-8" d="M216.12,66.23l-.98.22c-.06.01-.12-.02-.13-.08-.01-.06.02-.12.08-.13h0s.96-.23.96-.23h0c.06-.02.12.02.14.08.01.06-.02.12-.09.14h0Z"/>
        <path class="cls-8" d="M214.13,66.6l-1.01.06c-.06,0-.11-.04-.11-.1,0-.06.04-.11.1-.11h0s.99-.06.99-.06h0c.06,0,.11.04.11.1,0,.06-.04.11-.1.11h0Z"/>
        <path class="cls-8" d="M212.12,66.63l-1-.11c-.05,0-.09-.05-.09-.11,0-.05.05-.09.11-.09h0s.99.1.99.1h0c.06,0,.1.06.09.11s-.06.1-.11.09h0Z"/>
        <path class="cls-8" d="M210.13,66.32l-.97-.28s-.08-.06-.06-.11c.01-.05.06-.08.11-.06h0s.96.27.96.27h0c.05.02.08.07.07.12s-.07.08-.12.07h0Z"/>
        <path class="cls-8" d="M208.21,65.69l-.9-.43s-.06-.07-.04-.11c.02-.04.07-.06.11-.04h0s.89.42.89.42h0s.06.08.04.12c-.02.04-.07.06-.12.04h0Z"/>
        <path class="cls-8" d="M206.44,64.74l-.82-.58s-.04-.07-.02-.11c.02-.03.07-.04.11-.02h0s.82.57.82.57h0s.05.08.02.12c-.03.04-.08.05-.11.02h0Z"/>
        <path class="cls-8" d="M204.85,63.51l-.71-.71s-.03-.07,0-.1c.03-.03.07-.03.1,0h0s.71.7.71.7h0s.03.08,0,.11-.08.03-.11,0h0Z"/>
        <path class="cls-8" d="M203.48,62.04l-.59-.82s-.01-.07.01-.09c.03-.02.07-.01.09.01h0s.58.81.58.81h0s.02.08-.01.1-.07.02-.09-.01h0Z"/>
        <path class="cls-8" d="M202.38,60.36l-.44-.9s0-.05.02-.06c.02-.01.05,0,.07.03l.45.89s0,.06-.02.08c-.03.02-.06,0-.08-.02,0,0,0,0,0,0Z"/>
        <path class="cls-8" d="M201.59,58.52l-.28-.96s0-.03.02-.04c.02,0,.03,0,.04.02l.29.95s0,.04-.02.05c-.02,0-.04,0-.05-.02,0,0,0,0,0,0Z"/>
        <path class="cls-8" d="M201.12,56.57l-.11-1s0,0,0-.01c0,0,0,0,.01,0l.13.99s0,.02-.01.02-.02,0-.02-.01c0,0,0,0,0,0Z"/>
      </g>
      <g>
        <polygon class="cls-8" points="240.49 49.25 240.65 50.24 240.64 50.24 240.63 50.24 240.63 50.24 240.49 49.25"/>
        <path class="cls-8" d="M240.77,51.23l.09,1s0,.02-.02.02c-.01,0-.02,0-.02-.02,0,0,0,0,0,0l-.08-1s0-.01.01-.02c0,0,.01,0,.02.01Z"/>
        <path class="cls-8" d="M240.92,53.22l.02,1.01s-.01.04-.03.04-.04-.01-.04-.03c0,0,0,0,0,0v-1s0-.03.02-.03c.02,0,.03.01.03.03Z"/>
        <path class="cls-8" d="M240.93,55.23l-.05,1s-.02.05-.05.05c-.03,0-.05-.02-.05-.05,0,0,0,0,0,0l.06-1s.02-.04.04-.04c.02,0,.04.02.04.04Z"/>
        <path class="cls-8" d="M240.8,57.23l-.12,1s-.04.06-.07.05c-.03,0-.06-.04-.05-.07,0,0,0,0,0,0l.13-.99s.03-.05.06-.05c.03,0,.05.03.05.06Z"/>
        <path class="cls-8" d="M240.52,59.21l-.19.98s-.04.06-.08.05c-.04,0-.06-.04-.05-.08h0s.2-.98.2-.98c0-.04.04-.06.07-.05.04,0,.06.04.05.08Z"/>
        <path class="cls-8" d="M240.1,61.17l-.26.97s-.05.06-.09.05c-.04-.01-.06-.05-.05-.09h0s.27-.96.27-.96c0-.04.05-.06.08-.05.04,0,.06.05.05.09Z"/>
        <path class="cls-8" d="M239.53,63.1l-.33.95s-.06.06-.1.05c-.04-.01-.06-.06-.05-.1h0s.34-.95.34-.95c.01-.04.05-.06.09-.05s.06.06.05.1Z"/>
        <path class="cls-8" d="M238.84,64.98l-.4.92s-.07.06-.11.04c-.04-.02-.06-.07-.04-.11h0s.4-.91.4-.91c.02-.04.06-.06.1-.04.04.02.06.06.04.11Z"/>
        <path class="cls-8" d="M238.01,66.8l-.46.89s-.07.06-.12.04c-.04-.02-.06-.07-.04-.12h0s.46-.88.46-.88c.02-.04.07-.06.11-.04s.06.07.04.11Z"/>
        <path class="cls-8" d="M237.05,68.56l-.53.85s-.08.06-.13.03c-.04-.03-.06-.08-.03-.13h0s.53-.85.53-.85c.02-.04.08-.06.12-.03.04.02.06.08.03.12Z"/>
        <path class="cls-8" d="M235.97,70.25l-.58.82s-.09.05-.13.02c-.04-.03-.05-.09-.02-.13h0s.58-.81.58-.81c.03-.04.09-.05.13-.03.04.03.05.09.02.13Z"/>
        <path class="cls-8" d="M234.77,71.86l-.64.77s-.1.05-.14.01c-.04-.04-.05-.1-.01-.14h0s.64-.77.64-.77c.03-.04.1-.05.14-.02.04.03.05.1.02.14Z"/>
        <path class="cls-8" d="M233.46,73.38l-.69.72s-.11.04-.15,0c-.04-.04-.04-.11,0-.15h0s.69-.72.69-.72c.04-.04.1-.05.15,0s.04.11,0,.15Z"/>
        <path class="cls-8" d="M232.05,74.81l-.74.67s-.12.04-.16,0c-.04-.05-.04-.12,0-.16h0s.74-.67.74-.67c.04-.04.11-.04.15,0,.04.04.04.11,0,.16Z"/>
        <path class="cls-8" d="M230.54,76.13l-.79.62c-.05.04-.12.03-.16-.02-.04-.05-.03-.12.02-.16h0s.79-.61.79-.61c.05-.04.12-.03.16.01s.03.12-.02.16Z"/>
        <path class="cls-8" d="M228.94,77.34l-.83.56c-.05.04-.13.02-.17-.03-.04-.05-.02-.13.03-.17h0s.83-.56.83-.56c.05-.04.13-.03.16.03.04.05.02.13-.03.17Z"/>
        <path class="cls-8" d="M227.26,78.44l-.87.5c-.06.03-.14.01-.17-.05-.03-.06-.01-.14.05-.17h0s.86-.5.86-.5c.06-.04.13-.02.17.04.04.06.01.14-.04.17Z"/>
        <path class="cls-8" d="M225.5,79.41l-.9.44c-.06.03-.13,0-.16-.06-.03-.06,0-.13.06-.16l.89-.44c.06-.03.13,0,.17.05.03.06,0,.13-.05.17h0Z"/>
        <path class="cls-8" d="M223.68,80.25l-.93.37c-.06.02-.13,0-.15-.06s0-.13.07-.15l.92-.37c.06-.03.13,0,.16.06.03.06,0,.13-.06.16h0Z"/>
        <path class="cls-8" d="M221.8,80.96l-.96.3c-.06.02-.12-.01-.14-.07-.02-.06.02-.12.08-.14l.95-.3c.06-.02.12,0,.14.07.02.06,0,.12-.07.14h0Z"/>
        <path class="cls-8" d="M219.88,81.53l-.98.23c-.06.01-.11-.02-.13-.08-.01-.06.02-.11.08-.13l.97-.24c.06-.02.12.02.13.07.02.06-.02.12-.07.13h0Z"/>
        <path class="cls-8" d="M217.92,81.96l-.99.16c-.05,0-.11-.03-.12-.08s.03-.11.09-.12l.98-.17c.06-.01.11.02.12.08s-.02.11-.08.12h0Z"/>
        <path class="cls-8" d="M215.93,82.25l-1,.09c-.05,0-.1-.03-.1-.09,0-.05.04-.1.09-.1l.99-.1c.05,0,.1.03.11.08,0,.05-.03.1-.08.11h0Z"/>
        <path class="cls-8" d="M213.94,82.4l-1,.02c-.05,0-.09-.04-.09-.09,0-.05.04-.09.09-.09l1-.03c.05,0,.1.04.1.09s-.04.1-.09.1h0Z"/>
        <path class="cls-8" d="M211.93,82.41l-1-.05s-.08-.04-.08-.09.05-.08.09-.08l1,.04s.09.04.09.09c0,.05-.04.09-.09.09h0Z"/>
        <path class="cls-8" d="M209.93,82.28l-1-.12s-.08-.05-.07-.09c0-.04.05-.08.09-.07l.99.11s.08.04.08.09c0,.05-.04.08-.09.08h0Z"/>
        <path class="cls-8" d="M207.94,82.01l-.99-.19s-.07-.05-.06-.09.05-.07.09-.06l.98.18s.07.05.07.09c0,.04-.05.07-.09.07h0Z"/>
        <path class="cls-8" d="M205.98,81.6l-.97-.26s-.06-.05-.05-.09.05-.06.09-.05l.97.25s.07.05.06.09c0,.04-.05.07-.09.06h0Z"/>
        <path class="cls-8" d="M204.05,81.05l-.95-.33s-.05-.05-.04-.09.05-.05.09-.04l.94.32s.06.05.05.09c-.01.04-.05.06-.09.05h0Z"/>
        <path class="cls-8" d="M202.17,80.36l-.92-.39s-.05-.05-.03-.08c.01-.03.05-.04.08-.03l.92.39s.05.05.04.08c-.01.03-.05.05-.08.04h0Z"/>
        <path class="cls-8" d="M200.34,79.54l-.89-.46s-.03-.04-.02-.06c.01-.02.04-.03.06-.02l.89.45s.04.04.03.07c-.01.03-.04.04-.07.03,0,0,0,0,0,0Z"/>
        <path class="cls-8" d="M198.58,78.58l-.86-.53s-.02-.03-.01-.05c0-.02.03-.02.05-.01l.86.51s.03.04.02.05c-.01.02-.04.03-.05.02,0,0,0,0,0,0Z"/>
        <path class="cls-8" d="M196.88,77.5l-.82-.58s-.01-.02,0-.03c0,0,.02-.01.03,0l.82.57s.02.02,0,.04c0,.01-.02.02-.04,0,0,0,0,0,0,0Z"/>
        <path class="cls-8" d="M195.27,76.31l-.77-.64s0,0,0,0c0,0,0,0,0,0l.78.63s0,.01,0,.02c0,0-.01,0-.02,0,0,0,0,0,0,0Z"/>
      </g>
      <path class="cls-8" d="M200.98,42.07c-.05-2.51-.08-5.03-.08-7.54.05-2.49-.27-5.06.5-7.52,1.16-3.64,4.1-6.63,7.74-7.78,1.21-.37,2.47-.54,3.73-.54-5.06.06-9.79,3.53-11.23,8.39-.77,2.39-.5,4.95-.57,7.45,0,2.51-.03,5.03-.08,7.54h0Z"/>
      <path class="cls-8" d="M221.15,22.06c2.1,1.92,3.4,4.67,3.66,7.5,0,0-.13-.1-.13-.1,1.75-.34,3.51-.61,5.27-.92,1.76-.31,3.51-.6,5.28-.86-1.74.37-3.49.71-5.25,1.03-1.75.32-3.5.68-5.26.97-.06.01-.12-.03-.13-.09-.19-2.81-1.46-5.5-3.43-7.53h0Z"/>
      <path class="cls-8" d="M219.43,54.68c7.14,1.12,14.26,2.4,21.34,3.83-7.14-1.12-14.26-2.4-21.34-3.83h0Z"/>
      <path class="cls-8" d="M239.71,26.87c-2.31-16.78-20.14-27.64-36.06-21.71-5.03,1.82-9.51,5.14-12.71,9.45,3.13-4.37,7.6-7.76,12.66-9.61,15.97-6.1,34.06,4.95,36.11,21.87h0Z"/>
      <path class="cls-8" d="M185.74,37.62c.15,7.88.16,15.77,0,23.65-.16-7.88-.15-15.77,0-23.65h0Z"/>
      <g>
        <path class="cls-8" d="M202.84,38.48c.89.66,1.67,1.44,2.32,2.34-.89-.66-1.67-1.44-2.32-2.34h0Z"/>
        <path class="cls-8" d="M203.21,36.09c2.28,2.07,4.45,4.25,6.5,6.55-2.29-2.06-4.45-4.25-6.5-6.55h0Z"/>
        <path class="cls-8" d="M202.85,32.01c3.53,3.32,6.94,6.76,10.23,10.32-3.53-3.32-6.94-6.76-10.23-10.32h0Z"/>
        <path class="cls-8" d="M203.36,28.8c4.54,4.36,8.96,8.82,13.28,13.4-4.54-4.36-8.96-8.82-13.28-13.4h0Z"/>
        <path class="cls-8" d="M211.99,33.8c2.68,2.46,5.23,5.04,7.67,7.74-2.68-2.46-5.23-5.04-7.67-7.74h0Z"/>
        <path class="cls-8" d="M204.54,26.28c1.47,1.25,2.83,2.62,4.06,4.1-1.47-1.25-2.83-2.62-4.06-4.1h0Z"/>
        <path class="cls-8" d="M215.64,33.76c2.49,2.28,4.87,4.67,7.13,7.19-2.5-2.28-4.87-4.67-7.13-7.19h0Z"/>
        <path class="cls-8" d="M206.56,24.6c1.89,1.67,3.66,3.46,5.31,5.36-1.89-1.67-3.66-3.46-5.31-5.36h0Z"/>
        <path class="cls-8" d="M218.72,33.14c1.61,1.38,3.1,2.88,4.46,4.5-1.61-1.38-3.09-2.88-4.46-4.5h0Z"/>
        <path class="cls-8" d="M207.87,22.21c2.63,2.42,5.15,4.96,7.55,7.61-2.64-2.42-5.15-4.96-7.55-7.61h0Z"/>
        <path class="cls-8" d="M210.23,20.87c4.47,4.29,8.83,8.68,13.08,13.19-4.47-4.29-8.83-8.69-13.08-13.19h0Z"/>
        <path class="cls-8" d="M213.08,20.03c3.5,3.3,6.89,6.71,10.16,10.24-3.51-3.3-6.89-6.71-10.16-10.24h0Z"/>
        <path class="cls-8" d="M218.39,21.67c1.11.88,2.1,1.88,2.97,3-1.11-.88-2.1-1.88-2.97-3h0Z"/>
        <g>
          <path class="cls-8" d="M210.29,31.66c.02-.09.04-.18.04-.26,0-.08,0-.17-.02-.27-.02-.09-.05-.18-.1-.24-.05-.07-.11-.11-.18-.13-.07-.02-.14-.02-.2,0-.07.02-.13.05-.19.1s-.12.1-.17.16c-.16.2-.26.44-.31.71,0,.04,0,.07,0,.09.01.02.04.04.08.05,0,.04,0,.07,0,.07-.03.21-.01.38.06.5.03.06.08.09.13.11.06.02.11.02.17.01.06-.01.11-.03.17-.07.12-.08.23-.19.32-.34.09-.15.15-.3.19-.47ZM209.83,32.2s-.05.06-.09.08c-.03.03-.07.05-.11.06-.04.01-.07.02-.11,0-.06-.02-.1-.08-.11-.2-.01-.15,0-.31.06-.47.05-.16.13-.3.22-.41.09-.1.17-.13.23-.09.02.02.04.02.07.02s.04-.02.05-.03c.01-.02.02-.04.02-.06,0-.02-.01-.04-.03-.06-.03-.03-.07-.05-.11-.06-.04,0-.08,0-.11,0-.03,0-.07.02-.12.05.06-.06.12-.1.18-.12.05-.01.08-.01.12,0,.03,0,.06.03.08.06.02.03.04.06.06.1s.02.07.03.11c.02.15.01.31-.04.48-.05.17-.12.32-.22.45-.02.03-.05.06-.07.09Z"/>
          <path class="cls-8" d="M212.41,31.39s-.14.22-.38.58c-.02.03-.03.05-.04.05,0,0,0,0,0,0s0,0,0,0c0-.01,0-.03.01-.06,0,0,.03-.09.08-.26,0-.02,0-.03,0-.05,0-.02-.02-.03-.03-.04-.03-.02-.06-.02-.09-.01-.03,0-.06.03-.07.06-.01.02-.03.05-.06.1-.03.05-.06.09-.08.12-.02.03-.05.06-.07.09-.03.04-.05.06-.07.08-.02.02-.04.04-.07.06-.03.03-.06.04-.09.05-.09.02-.13-.01-.13-.1h0s.01,0,.02-.01c0,0,.02,0,.02,0,.08-.02.15-.06.21-.11.06-.05.11-.11.12-.18,0-.04,0-.08,0-.11-.01-.04-.03-.06-.06-.08-.03-.02-.06-.03-.09-.04-.04,0-.07,0-.11.01-.05.02-.11.07-.15.13-.03.04-.04.09-.06.13,0,0,0,0-.01,0-.04,0-.08,0-.14,0,0,0,0,0,0,0,0,0,0,0,0,0,0-.02,0-.04,0-.07,0-.07-.02-.12-.07-.16s-.11-.05-.19-.03c-.07.01-.13.04-.18.08,0-.03,0-.06-.02-.07-.02-.02-.05-.03-.08-.02-.04,0-.07.04-.08.09-.19.75-.29,1.17-.32,1.26-.04.16-.06.26-.08.32,0,.03,0,.05,0,.07.01.02.03.03.05.04.02,0,.04,0,.06,0s.03-.03.04-.06c0-.03.02-.06.03-.08.05-.21.13-.48.22-.82,0,0,0,0,.02,0,.21.03.37-.05.47-.25.03-.05.05-.08.08-.09.02,0,.06-.01.11-.01,0,0,0,0,0,0-.01.04-.01.08,0,.13,0,.04.01.09.03.12.01.04.04.07.07.1s.07.04.12.05c.14.01.28-.06.43-.24,0,.03,0,.05,0,.08.01.06.04.1.09.12.05.02.09,0,.14-.04.03-.02.05-.05.08-.09.01-.02.03-.04.05-.07.02-.02.03-.05.05-.08s.04-.05.05-.07c0,0,.01-.02.03-.04,0,.04-.01.05-.01.06-.01.06-.02.12-.02.19,0,.08.02.14.04.17.02.03.04.04.07.05s.06,0,.08-.03c0,0,0-.01,0-.02-.03-.13-.03-.27,0-.41.03-.14.08-.3.15-.46.02-.03.02-.05.03-.06.01-.04,0-.07-.02-.09-.05-.04-.11-.01-.18.09ZM211.47,31.68s0,0,0,0c.01-.01.03-.01.03,0,0,0,0,.02,0,.04-.03.05-.08.09-.14.12.02-.07.06-.12.1-.15ZM210.65,32.12c-.05.04-.11.05-.16.06,0-.04.03-.07.09-.11s.12-.06.18-.06c-.02.04-.05.08-.11.12ZM210.84,31.76s0,0,0,0c0,0,0,0,0,0s0,0,0,0,0,0,0,0c0,0,0,0-.01,0s0,0-.01,0,0,0-.01,0-.01,0-.01,0c-.12.03-.19.05-.19.05,0,0,0-.01,0-.02.03-.05.09-.1.17-.15.03-.02.06-.02.07-.01.02,0,.02.03.02.07,0,0,0,0,0,0Z"/>
          <path class="cls-8" d="M216.65,31.33c.02-.05.05-.08.1-.09.11,0,.32-.02.63-.03.02,0,.03,0,.04,0s.02,0,.03,0c.01,0,.02,0,.03-.01s.01-.01.02-.03,0-.02,0-.04c0-.04,0-.06-.02-.08-.02-.02-.03-.02-.06-.02-.02,0-.04,0-.07,0-.03,0-.21,0-.53.02,0,0-.03,0-.07,0,0,0,0,0,0,0,0,0,0,0,0,0,0-.03.02-.06.04-.1.02-.04.03-.08.03-.09,0-.03,0-.05,0-.07-.01-.02-.03-.04-.05-.05-.02,0-.04,0-.07,0s-.04.03-.05.05c-.01.03-.03.06-.04.09-.01.03-.03.07-.04.11s-.03.07-.03.09c0,0,0,0,0,0-.25.02-.39.04-.42.04-.08,0-.14.01-.17.02-.03,0-.05.02-.06.03-.01.02-.02.04-.01.07,0,.02.01.04.02.05.01.01.03.02.04.02.02,0,.03,0,.05,0,.03,0,.09-.01.18-.02.03,0,.04,0,.06,0-.03.02-.06.04-.09.09,0,0-.13.2-.38.58-.02.03-.03.05-.04.05,0,0,0,0,0,0s0,0,0,0c0-.01,0-.03.01-.06,0,0,.03-.09.08-.26,0-.02,0-.03,0-.05,0-.02-.02-.03-.03-.04-.03-.02-.06-.02-.1-.01-.04.01-.06.03-.07.07-.03.09-.05.16-.07.22-.07.11-.14.19-.2.24-.01,0-.02.01-.03,0s-.01-.02-.01-.03c.01-.12.05-.27.1-.44,0-.02.01-.03.01-.04s0-.02,0-.03c0-.02,0-.03,0-.03,0,0-.01-.02-.02-.03,0,0-.02-.02-.04-.02-.03-.01-.05-.01-.07,0-.02.01-.03.03-.05.06-.04.08-.1.18-.16.3,0,.01-.01.03-.03.06-.01.03-.02.05-.03.07s-.02.04-.03.06c-.01.02-.02.04-.03.05,0,.01-.02.02-.02.02,0,0-.01,0-.02,0-.02-.03,0-.12.03-.26,0,0,.03-.09.08-.25,0-.03,0-.05,0-.07-.01-.02-.04-.03-.07-.04-.04,0-.07,0-.09.04-.06.07-.13.14-.21.22,0-.09-.05-.16-.11-.22-.07-.05-.15-.07-.24-.04-.07.02-.14.07-.19.14-.05.07-.07.15-.06.22,0,.02,0,.03,0,.04,0,.01,0,.01-.02.03-.03.04-.05.06-.06.08,0,.01-.03.04-.06.07-.03.04-.05.06-.07.08-.02.02-.04.04-.07.07s-.05.05-.08.06c-.02.01-.05.03-.08.04s-.06.02-.08.03c-.04,0-.08,0-.11-.02-.03-.02-.05-.05-.07-.09-.01-.04-.02-.08-.03-.12s0-.08,0-.12c.02-.33.15-.63.39-.9.09-.1.18-.16.27-.19.03,0,.05-.01.08-.01.03,0,.05,0,.07.02.02.02.03.04.04.07,0,.06,0,.12-.03.18-.03.07-.06.12-.1.17-.03.03-.06.05-.09.06-.02-.03-.02-.04-.03-.04-.01-.02-.03-.03-.05-.03-.02,0-.04,0-.06,0s-.03.02-.04.04-.01.04,0,.06c.01.06.05.1.09.12.05.02.1.02.15,0,.05-.02.1-.04.14-.08.07-.07.13-.16.17-.26.04-.1.05-.2.04-.3,0-.06-.03-.1-.06-.14s-.07-.06-.12-.07-.09-.02-.15-.01-.1.02-.15.04c-.08.04-.16.09-.24.17-.08.07-.14.15-.2.23s-.1.17-.14.26c-.1.23-.16.45-.15.65,0,.21.07.35.21.42.07.03.14.05.21.04.07,0,.14-.03.2-.07.08-.05.16-.12.24-.22.02-.02.03-.04.05-.07,0,.03,0,.07.01.09.03.05.07.07.12.08.05.01.1,0,.15-.02.05-.02.09-.05.12-.09.07-.08.13-.17.16-.26.04-.03.08-.06.13-.1,0,.05-.02.09-.02.13,0,.06,0,.12.03.17.03.05.07.08.13.09.04,0,.07,0,.11-.02.03-.02.06-.04.08-.08.01-.02.03-.05.05-.08,0,0,0,0,0,0,0,.03,0,.04,0,.05,0,.05.03.1.07.12s.09.03.15,0c.05-.02.1-.06.16-.12.02.06.04.1.09.11.05.02.09,0,.14-.04.03-.02.05-.05.08-.09l.14-.22s.02-.02.03-.04c0,.04-.01.05-.01.06-.01.06-.02.12-.02.19,0,.08.01.14.04.17.02.03.04.04.07.05.03,0,.06,0,.08-.03,0,0,0-.01,0-.02-.03-.13-.03-.27,0-.41.03-.14.08-.3.15-.46.01-.04.02-.06.03-.06.01-.04,0-.07-.02-.09-.02-.01-.04,0-.06,0,.04,0,.08,0,.11-.01.04,0,.06,0,.07.02.01.02.01.04,0,.08,0,.01-.02.07-.05.17-.03.1-.05.16-.06.19,0,.03-.02.09-.04.16-.02.07-.03.14-.04.2s-.01.11-.02.17c0,.13.03.23.09.28.02.02.04.02.06.02.02,0,.04-.01.06-.03s.03-.03.03-.05,0-.04-.02-.06c-.03-.03-.04-.06-.04-.09,0-.13.02-.28.06-.44.04-.16.1-.35.17-.56ZM214.27,32.19s-.03.01-.04,0c-.01,0-.02-.01-.02-.03,0-.02,0-.03,0-.06.02.01.05.02.08.02,0,0,.01,0,.02,0,.01,0,.02,0,.03,0-.02.02-.05.04-.07.06ZM214.47,31.86s0,.03,0,.05c-.07.04-.12.06-.15.05-.01,0-.02-.01-.02-.03,0-.02,0-.03.01-.04.02-.03.04-.04.05-.05.06-.05.05-.1,0-.14h-.01s.05-.03.05-.03c.03,0,.06,0,.07.02s.02.05.02.08c0,.03,0,.06,0,.08Z"/>
          <path class="cls-8" d="M218.03,31.87s-.03-.02-.04-.02c0,0-.01-.01-.02-.02,0-.01-.01-.03-.02-.04,0,0,0-.02,0-.03s0-.02,0-.03c0,0,0-.02,0-.03s0-.02,0-.03c0,0,0-.02,0-.03,0-.01,0-.02,0-.03,0,0,0-.01,0-.03,0-.02,0-.02,0-.03,0-.03,0-.06-.02-.09-.02-.02-.05-.04-.08-.04-.04,0-.08.01-.12.04s-.06.06-.08.1c-.09.17-.15.29-.18.38,0,0,0,0,0,0,0,0,0,0,0,0s0-.01,0-.02c.04-.12.06-.19.07-.22.01-.03.01-.06,0-.08s-.02-.04-.05-.05c-.04-.02-.08,0-.12.05-.01.02-.03.04-.05.07-.02.03-.04.06-.05.07-.1.15-.19.26-.26.33-.05.04-.08.07-.12.08-.09.02-.13-.01-.13-.1h0s.01,0,.02-.01c0,0,.02,0,.02,0,.08-.02.15-.06.21-.11s.11-.11.12-.18c.01-.04,0-.08,0-.11-.01-.04-.03-.06-.06-.08-.03-.02-.06-.03-.1-.04s-.07,0-.11.01c-.08.03-.14.09-.19.17-.05.08-.09.17-.11.26,0,.04-.01.08,0,.13,0,.04.02.09.03.12.02.04.04.07.07.1.03.03.07.04.12.05.15.01.29-.07.44-.26,0,.12.03.19.11.21.04,0,.07,0,.11-.02.04-.02.06-.05.08-.09s.03-.07.05-.11c.02-.04.04-.08.06-.14.02-.06.04-.09.04-.11,0,0,0,0,0-.01,0,0,0-.01,0-.02,0,0,0-.01,0-.02.02.1.06.18.11.22.02.02.06.03.09.03.04,0,.06-.02.08-.05.02-.04.01-.08-.02-.09ZM216.97,31.68s0,0,0,0c.02-.01.03-.01.03,0s0,.02,0,.04c-.03.05-.08.09-.14.12.03-.07.06-.12.11-.15Z"/>
        </g>
      </g>
      <g>
        <path class="cls-8" d="M192.6,31.48c-.09-.4-.26-.76-.43-1.13-.02-.03-.07-.04-.1-.01,0,0-.27.2-.51.39-3.06-2.2-6.83-3.84-10.63-3.21,2.2,0,4.63.2,6.74,1.09,1.3.55,2.54,1.43,3.67,2.28-.1.08-.18.14-.18.14-.06.05-.05.15.02.18.38.19.76.45,1.19.53.4-.09-.12-.49-.2-.56-.15-.11-.3-.22-.45-.33l.38-.32c.17.31.34.64.45.97.03.12.09.27,0,.36,0,.01,0,.03.02.02.11-.12.06-.27.04-.4ZM191.87,31.29c-.17-.08-.32-.15-.45-.21l.08-.07c.12.09.25.18.37.28Z"/>
        <g>
          <path class="cls-8" d="M178.19,27.41s-.07-.07-.11-.1c-.04-.03-.09-.06-.14-.09-.05-.03-.1-.06-.15-.08-.05-.02-.09-.04-.14-.07-.05-.02-.08-.04-.11-.06-.03-.02-.04-.04-.04-.06,0-.03,0-.05.03-.08s.04-.05.06-.06c.02-.02.04-.03.06-.05.22-.15.5-.25.83-.32.05,0,.07-.03.07-.07,0-.04-.02-.07-.04-.08-.03-.02-.06-.02-.09-.01-.11.02-.23.06-.37.11-.14.05-.26.1-.36.15-.04.02-.07.04-.11.07-.04.03-.08.05-.12.09-.04.03-.08.07-.11.11-.03.04-.05.08-.06.12s0,.08.02.12c.02.04.06.08.12.12.01,0,.03.02.06.03s.06.03.09.04c.03.01.07.03.11.05.04.02.08.04.11.06.04.02.07.04.11.07.03.02.06.05.09.07.02.03.04.05.06.08.01.03.02.05.01.08,0,.03-.02.05-.05.08-.06.06-.13.09-.22.11s-.18,0-.26-.02c-.08-.03-.16-.06-.22-.11,0,0-.02-.02-.04-.04-.02-.02-.04-.04-.05-.05-.02-.01-.03-.02-.05-.01-.03,0-.05.02-.07.05-.02.03-.02.05,0,.08.04.08.12.14.22.2s.2.08.29.09c.11.01.23,0,.33-.03.11-.03.19-.09.26-.17.04-.05.07-.1.08-.15.01-.05.01-.09,0-.13-.01-.04-.04-.08-.07-.11Z"/>
          <path class="cls-8" d="M178.81,26.92c.02-.05.06-.08.11-.08.11,0,.32.02.63.04.02,0,.03,0,.04,0,0,0,.02,0,.03,0,.01,0,.02,0,.03,0,0,0,.01-.01.02-.02,0-.01.01-.02.01-.04,0-.04,0-.06-.02-.08-.01-.02-.03-.03-.05-.03-.02,0-.04,0-.07,0-.03,0-.21-.01-.53-.03,0,0-.03,0-.07,0,0,0,0,0,0,0,0,0,0,0,0,0,.01-.02.03-.06.05-.1.02-.04.04-.07.04-.09.01-.02.01-.05,0-.07,0-.02-.02-.04-.04-.05-.02-.01-.04-.01-.07,0s-.04.02-.05.04c-.02.03-.03.05-.05.08-.02.03-.03.06-.05.1-.02.04-.03.07-.04.09,0,0,0,0,0,0-.25,0-.39,0-.42,0-.08,0-.14,0-.17,0-.03,0-.05.01-.06.03-.02.02-.02.04-.02.07,0,.02,0,.04.02.05.01.01.02.02.04.02.02,0,.03,0,.05,0,.03,0,.09,0,.18,0s.16,0,.21,0c.04,0,.06,0,.07.03s0,.04,0,.08c0,.01-.03.07-.07.16-.04.09-.06.15-.08.19-.01.03-.03.08-.06.16-.03.07-.05.14-.06.19-.01.06-.02.11-.03.17-.02.13,0,.23.06.29.02.02.04.03.06.02.02,0,.04,0,.06-.02.02-.01.03-.03.03-.05,0-.02,0-.04-.01-.06-.02-.03-.03-.06-.03-.1.01-.13.05-.27.11-.43.06-.15.13-.33.23-.53Z"/>
          <path class="cls-8" d="M180.61,27.08s-.05-.03-.09-.02c-.03,0-.06.04-.1.08l-.45.54s-.03.04-.04.04c0,0-.01,0-.01,0,0,0,0,0,0-.01,0-.01.01-.03.02-.05.01-.03.03-.07.06-.13.03-.06.05-.11.06-.14.02-.05.03-.08.04-.1,0-.03,0-.06-.02-.08-.02-.02-.05-.03-.08-.02,0,0-.02,0-.03,0,0,0-.02,0-.02.01,0,0-.02,0-.02.02,0,0-.02.01-.02.02,0,0-.01.01-.02.02s-.01.02-.02.02c0,0,0,.01-.02.02,0,.01-.02.02-.02.02,0,0-.08.1-.22.27-.02.02-.03.04-.04.04h0s0-.02.02-.06c.01-.03.03-.07.05-.12s.04-.09.05-.11c.01-.03.01-.05,0-.07-.01-.02-.03-.03-.05-.04-.02,0-.05,0-.07,0-.02,0-.03.02-.05.03-.02.02-.03.04-.05.06-.02.03-.03.04-.04.05-.11.14-.21.24-.29.3-.07.05-.13.08-.18.07-.05,0-.07-.05-.06-.12h0s0,0,.02,0,.02,0,.02,0c.08-.01.15-.04.22-.09s.12-.1.14-.17c.01-.04.02-.08,0-.11,0-.04-.03-.07-.05-.09-.03-.02-.06-.04-.09-.05-.04-.01-.07-.01-.11,0-.08.02-.14.07-.2.15-.06.08-.1.16-.13.25-.01.04-.02.08-.02.12s0,.09.01.13c0,.04.03.07.06.1.03.03.07.05.11.06.14.03.28-.03.44-.18,0,.02,0,.03,0,.03-.01.05,0,.1.02.14.03.04.07.06.12.05.02,0,.05-.02.07-.04.03-.02.05-.04.06-.05.01-.01.03-.04.06-.07.02-.03.04-.05.05-.06,0,0,0-.01.02-.02,0,0,.02-.02.02-.02,0,.03,0,.05,0,.06,0,0,0,.01,0,.02,0,.01,0,.02,0,.03,0,0,0,.01,0,.03,0,.01,0,.02,0,.03,0,0,0,.01,0,.02,0,.01,0,.02,0,.03,0,0,0,.01.01.02,0,0,.01.02.02.02,0,0,.01.01.02.02.07.04.16,0,.26-.12,0-.01.03-.04.08-.1.04-.05.08-.09.1-.12,0,.02,0,.03-.01.04,0,0,0,.02,0,.02-.04.14-.05.26-.02.35,0,.01,0,.03.02.04.03.04.06.05.11.05.04,0,.05-.02.05-.05-.03-.23.05-.51.24-.87.02-.03.03-.05.03-.06.01-.03,0-.06-.02-.09ZM179.09,27.3s0,0,0,0c.02-.01.03-.01.03,0,0,.01,0,.02,0,.04-.03.05-.08.08-.15.1.03-.06.07-.11.12-.14Z"/>
        </g>
      </g>
      <path class="cls-8" d="M200.99,78.98c11.21,5.38,24.65,2.47,32.63-7.06,1.12-1.27,2.1-2.82,2.99-4.18-6.3,12.48-23.38,17.88-35.62,11.24h0Z"/>
    </g>
  </g>
  <g id="mask" class="cls-9">
    <g>
      <line class="cls-5" x1="160.06" y1="79.68" x2="160.06" y2="64.08"/>
      <line class="cls-5" x1="146.42" y1="66.29" x2="162.08" y2="66.29"/>
    </g>
    <g>
      <g>
        <line class="cls-5" x1="261.94" y1="53.16" x2="264.37" y2="55.58"/>
        <line class="cls-5" x1="261.49" y1="48.81" x2="268.56" y2="55.88"/>
        <line class="cls-5" x1="261.93" y1="45.36" x2="272.15" y2="55.58"/>
        <line class="cls-5" x1="262.32" y1="41.86" x2="276.34" y2="55.88"/>
        <line class="cls-5" x1="261.94" y1="37.59" x2="279.39" y2="55.03"/>
        <line class="cls-5" x1="271.91" y1="43.66" x2="283.55" y2="55.3"/>
        <line class="cls-5" x1="262.64" y1="34.39" x2="269.57" y2="41.32"/>
        <line class="cls-5" x1="276.02" y1="43.88" x2="283.41" y2="51.27"/>
        <line class="cls-5" x1="262.32" y1="30.18" x2="272.69" y2="40.55"/>
        <line class="cls-5" x1="265.69" y1="29.66" x2="282.98" y2="46.94"/>
        <line class="cls-5" x1="269.08" y1="29.16" x2="283.41" y2="43.48"/>
        <line class="cls-5" x1="273.1" y1="29.28" x2="283.55" y2="39.73"/>
        <line class="cls-5" x1="277.37" y1="29.66" x2="283.5" y2="35.79"/>
        <line class="cls-5" x1="281.26" y1="29.66" x2="282.98" y2="31.37"/>
        <line class="cls-4" x1="268.85" y1="42" x2="275.03" y2="42"/>
      </g>
      <line class="cls-5" x1="260.86" y1="59.21" x2="260.86" y2="22.55"/>
      <line class="cls-5" x1="284.54" y1="53.31" x2="284.54" y2="32.31"/>
      <path class="cls-5" d="M260.86,30.7c0-6.53,5.29-11.83,11.83-11.83,5.37,0,9.9,3.57,11.34,8.47"/>
      <path class="cls-5" d="M278.64,64.95c-1.75,1.02-3.79,1.6-5.96,1.6-2.93,0-5.6-1.06-7.67-2.82"/>
      <path class="cls-5" d="M278.64,63.95c-1.75,1.02-3.79,1.6-5.96,1.6-2.93,0-5.6-1.06-7.67-2.82"/>
      <line class="cls-5" x1="245.63" y1="34.39" x2="245.63" y2="48.81"/>
      <line class="cls-5" x1="299.74" y1="39.43" x2="299.74" y2="47.58"/>
      <path class="cls-5" d="M247,63.23c3.57,10.76,13.72,18.53,25.68,18.53,14.94,0,27.06-12.11,27.06-27.06"/>
      <path class="cls-5" d="M299.6,27.84c-1.22-11.61-9.78-21.03-20.95-23.54"/>
      <path class="cls-5" d="M262.64,5.47c-8.09,3.24-14.25,10.28-16.28,18.91"/>
      <g>
        <path class="cls-5" d="M295.55,5.78s-7.26.41-11.99,6.13c-.58,1.12,1.35-.66,1.35-.66,0,0-2.33-.25-1.93-.2s0,1.62,0,1.62"/>
        <line class="cls-4" x1="294.66" y1="6.14" x2="301.05" y2="6.14"/>
      </g>
    </g>
    <g>
      <line class="cls-5" x1="113.96" y1="44.13" x2="130.49" y2="12.38"/>
      <polyline class="cls-5" points="112.2 14.77 95.13 47.39 117.91 47.39"/>
      <line class="cls-5" x1="95.63" y1="18.83" x2="116.57" y2="18.83"/>
      <polyline class="cls-5" points="132.58 8.37 135.04 3.64 108.01 3.64"/>
      <line class="cls-5" x1="97.36" y1="3.64" x2="86.61" y2="3.64"/>
      <line class="cls-5" x1="89.37" y1="12.63" x2="89.37" y2="2.33"/>
      <line class="cls-5" x1="113.96" y1="66.36" x2="100.1" y2="66.36"/>
      <line class="cls-5" x1="118.61" y1="81.56" x2="98.4" y2="81.56"/>
      <line class="cls-5" x1="85.78" y1="69.09" x2="96.41" y2="62.96"/>
      <line class="cls-5" x1="96.41" y1="62.96" x2="85.12" y2="62.96"/>
      <path class="cls-5" d="M104.3,64.18c1.64,1.37,3.76,2.19,6.06,2.19,5.24,0,9.49-4.25,9.49-9.49s-4.25-9.49-9.49-9.49c-2.75,0-5.22,1.17-6.95,3.03"/>
      <path class="cls-5" d="M132.04,68.8c-4.21,7.61-12.32,12.75-21.63,12.75"/>
      <path class="cls-5" d="M110.4,32.12c13.65,0,24.72,11.07,24.72,24.72"/>
      <g>
        <path class="cls-5" d="M94.67,53.34c1.8-3.32,4-4.98,4-4.98,0,0-.34.68-.24,1.28s-1.16-1.06-1.16-1.06l1.79-.53"/>
        <path class="cls-5" d="M92.25,62.43l.69-1.58-1.49-.11s.47.88.81,1.69c.11-2.06.24-4.37,1.09-6"/>
        <polyline class="cls-2" points="89.55 53.87 92.54 54.31 92.25 55.52 92.83 54.43 96.62 55.07"/>
      </g>
      <g>
        <path class="cls-5" d="M132.72,4.13s-.33,1.04.9,1.14"/>
        <line class="cls-2" x1="129.45" y1="7.17" x2="131.36" y2="5.63"/>
      </g>
      <g>
        <path class="cls-5" d="M107.75,19.14s-.33,1.04.9,1.14"/>
        <line class="cls-2" x1="105.66" y1="21.15" x2="106.88" y2="20.68"/>
      </g>
      <g>
        <path class="cls-5" d="M96.67,45.34s1.79-.16,1.11,1.65"/>
        <path class="cls-2" d="M100.74,44.64"/>
        <line class="cls-2" x1="97.03" y1="44.99" x2="100.74" y2="44.64"/>
      </g>
      <g>
        <path class="cls-5" d="M92.07,63.26s-.44,1.08.37,1.63"/>
        <line class="cls-2" x1="88.2" y1="65.14" x2="90.95" y2="64.18"/>
      </g>
      <g>
        <path class="cls-5" d="M89.37,23.33c2.08-8.56,10.32-9.06,10.32-9.06,0,0-.29.16-.57.87-.13.33-.47-1.21-.47-1.21,0,0,.75-.05,1.3.4"/>
        <line class="cls-2" x1="86.52" y1="23.66" x2="90.22" y2="23.66"/>
      </g>
    </g>
    <g>
      <line class="cls-5" x1="58.89" y1="31.25" x2="42.51" y2="36.42"/>
      <line class="cls-5" x1="45.84" y1="51.3" x2="18.55" y2="59.9"/>
      <line class="cls-5" x1="58.91" y1="54.02" x2="58.91" y2="43.28"/>
      <g>
        <line class="cls-5" x1="35.92" y1="37.12" x2="36.56" y2="37.76"/>
        <line class="cls-5" x1="35.92" y1="34.15" x2="38.69" y2="36.92"/>
        <line class="cls-5" x1="36.14" y1="31.41" x2="40.56" y2="35.83"/>
        <line class="cls-5" x1="36.46" y1="28.76" x2="42.88" y2="35.18"/>
        <line class="cls-5" x1="37.24" y1="26.57" x2="45.18" y2="34.51"/>
        <line class="cls-5" x1="38.34" y1="24.71" x2="47.11" y2="33.47"/>
        <line class="cls-5" x1="46.51" y1="29.91" x2="49.59" y2="32.99"/>
        <line class="cls-5" x1="40.05" y1="23.45" x2="43.39" y2="26.78"/>
        <line class="cls-5" x1="48.79" y1="29.22" x2="51.54" y2="31.97"/>
        <line class="cls-5" x1="41.33" y1="21.76" x2="45.71" y2="26.14"/>
        <line class="cls-5" x1="50.33" y1="27.79" x2="54.04" y2="31.5"/>
        <line class="cls-5" x1="43.39" y1="20.85" x2="48.34" y2="25.81"/>
        <line class="cls-5" x1="45.76" y1="20.25" x2="56.33" y2="30.82"/>
        <line class="cls-5" x1="48.72" y1="20.25" x2="57.98" y2="29.51"/>
        <line class="cls-5" x1="52.09" y1="20.65" x2="56.16" y2="24.72"/>
        <line class="cls-2" x1="43.27" y1="28.9" x2="49.59" y2="26.78"/>
      </g>
      <path class="cls-5" d="M47.1,66.39c-6.37,0-11.55-5.04-11.8-11.35v-7.71"/>
      <path class="cls-5" d="M74.08,54.57v-23.94c0-14.9-12.08-26.99-26.99-26.99-5.51,0-10.63,1.65-14.9,4.48"/>
      <line class="cls-5" x1="20.11" y1="65.21" x2="20.11" y2="21.76"/>
      <line class="cls-5" x1="35.3" y1="40.25" x2="35.3" y2="23.33"/>
      <path class="cls-5" d="M26.79,72.35c4.95,5.65,12.21,9.21,20.31,9.21,3.71,0,7.25-.75,10.47-2.11"/>
      <g>
        <path class="cls-5" d="M70.47,77.73s-9.11,0-12.04-4.41c2.58.23,0,1.09,0,1.09,0,0,.06-.65-.38-1.43"/>
        <line class="cls-2" x1="70.29" y1="77.87" x2="74.84" y2="77.87"/>
      </g>
    </g>
    <g>
      <path class="cls-5" d="M218.89,44.3c3.56,2.07,5.95,5.91,5.95,10.32,0,6.59-5.34,11.93-11.93,11.93s-11.93-5.34-11.93-11.93"/>
      <path class="cls-5" d="M240.49,49.25c.28,1.59.42,3.22.42,4.89,0,15.57-12.62,28.19-28.19,28.19-7.22,0-13.81-2.71-18.8-7.18"/>
      <path class="cls-5" d="M200.98,42.07v-11.5c0-6.56,5.32-11.88,11.88-11.88"/>
      <path class="cls-5" d="M221.15,22.06c1.99,1.94,3.3,4.57,3.54,7.51l10.53-1.89"/>
      <line class="cls-5" x1="219.43" y1="54.68" x2="240.77" y2="58.51"/>
      <path class="cls-5" d="M239.71,26.87c-1.25-9.11-7.01-16.77-14.97-20.67-3.59-1.76-7.61-2.77-11.88-2.77s-8.29,1.01-11.88,2.77c-3.99,1.95-7.44,4.85-10.04,8.4"/>
      <line class="cls-5" x1="185.74" y1="37.62" x2="185.74" y2="61.27"/>
      <g>
        <line class="cls-5" x1="202.84" y1="38.48" x2="205.16" y2="40.82"/>
        <line class="cls-5" x1="203.21" y1="36.09" x2="209.71" y2="42.64"/>
        <line class="cls-5" x1="202.85" y1="32.01" x2="213.08" y2="42.33"/>
        <line class="cls-5" x1="203.36" y1="28.8" x2="216.64" y2="42.2"/>
        <line class="cls-5" x1="211.99" y1="33.8" x2="219.66" y2="41.53"/>
        <line class="cls-5" x1="204.54" y1="26.28" x2="208.61" y2="30.38"/>
        <line class="cls-5" x1="215.64" y1="33.76" x2="222.77" y2="40.95"/>
        <line class="cls-5" x1="206.56" y1="24.6" x2="211.88" y2="29.96"/>
        <line class="cls-5" x1="218.72" y1="33.14" x2="223.18" y2="37.64"/>
        <line class="cls-5" x1="207.87" y1="22.21" x2="215.42" y2="29.82"/>
        <line class="cls-5" x1="210.23" y1="20.87" x2="223.31" y2="34.06"/>
        <line class="cls-5" x1="213.08" y1="20.03" x2="223.24" y2="30.28"/>
        <line class="cls-5" x1="218.39" y1="21.67" x2="221.36" y2="24.67"/>
        <line class="cls-1" x1="207.6" y1="31.77" x2="217.82" y2="31.77"/>
      </g>
      <g>
        <path class="cls-5" d="M180.92,27.53s4.64-.71,9.12,2.3,1.18,1.28,1.18,1.28l.89-.71s.69,1.29.45,1.46"/>
        <line class="cls-1" x1="176.1" y1="27.29" x2="180.47" y2="27.22"/>
      </g>
      <path class="cls-5" d="M200.98,78.99c3.59,1.76,7.61,2.77,11.88,2.77s8.29-1.01,11.88-2.77c5.01-2.45,9.16-6.4,11.85-11.26"/>
    </g>
  </g>
</svg>